<svg width="1440" height="1167" viewBox="0 0 1440 1167" fill="none" xmlns="http://www.w3.org/2000/svg">
<g clip-path="url(#clip0_17_647)">
<path d="M2158.79 -0.922607H-599.429V1153.55H2158.79V-0.922607Z" fill="url(#paint0_linear_17_647)"/>
<path opacity="0.3" d="M-464.019 1118.72C-409.613 1096.28 -353.696 1073.84 -289.392 1055.02C-232.87 1038.47 -168.112 1024.04 -95.5712 1019.21C-19.0253 1014.14 59.0319 1020.49 126.208 1034.32C188.623 1047.24 224.894 1071.19 252.701 1094.24C277.562 1114.86 297.133 1136.32 322.447 1156.88H613.517C650.619 1146.98 686.89 1136.63 722.858 1126.2C785.651 1108.06 847.538 1090.46 918.19 1076.4C968.288 1066.43 1021.33 1057.82 1077.18 1052.98C1132.87 1048.15 1189.84 1047.09 1246.59 1049.73C1356.31 1054.95 1453.26 1074.82 1529.95 1103.3C1572.04 1118.94 1609.52 1137 1636.72 1156.88H1998.82C1905.13 1130.81 1822.23 1099.68 1746.52 1066.96C1643.07 1022.23 1560.18 967.07 1420.61 935.335C1384.42 927.099 1344.67 920.223 1302.13 917.654C1259.21 915.085 1215.53 916.294 1173.59 920.374C1089.64 928.534 1014.61 945.233 940.179 960.949C783.309 994.196 602.561 1022 416.977 1009.31C368.691 1005.98 321.691 1000.39 277.94 992.231C237.286 984.675 198.673 975.683 158.625 967.75C77.7716 951.656 -11.9223 938.357 -105.848 945.611C-279.115 959.06 -390.874 1010.52 -521.674 1049.2C-545.477 1056.23 -570.186 1062.8 -595.878 1068.92V1156.88H-556.282C-525.226 1144.33 -494.849 1131.41 -464.019 1118.72Z" fill="#07294E"/>
<path opacity="0.3" d="M-520.843 455.759C-544.494 465.808 -569.355 474.724 -594.82 483.187V535.323C-554.544 512.504 -516.838 488.854 -476.412 466.035C-436.061 443.291 -390.496 420.17 -332.236 405.814C-274.808 391.609 -209.294 388.057 -145.67 396.293C-69.6529 406.116 -13.887 427.802 41.0477 451.603C98.3249 476.462 156.509 499.659 239.478 505.25C336.35 511.824 425.817 492.556 505.99 471.173C630.821 437.851 761.546 399.467 915.394 404.303C1028.89 407.854 1124.25 435.584 1199.36 471.248C1286.34 512.504 1351.7 561.542 1416.23 609.673C1449.55 634.532 1482.42 659.467 1517.71 683.797C1552.24 707.523 1587.83 732.231 1635.21 751.574C1758.08 801.897 1942.38 820.333 2101.82 803.106V779.833C2098.79 779.909 2095.77 779.984 2092.75 779.984C2018.77 780.74 1944.27 773.713 1873.69 761.699C1791.63 747.796 1710.78 726.337 1648.96 693.091C1593.27 663.094 1546.73 620.856 1564.48 576.578C1580.66 536.23 1643 506.535 1715.76 498.299C1758.68 493.463 1801.6 495.276 1842.11 504.57C1884.57 514.317 1922.05 529.051 1960.36 542.803C1979.18 549.528 1998.3 556.631 2018.7 561.844C2041.97 567.738 2066 572.8 2090.63 576.729C2094.34 577.334 2098.04 577.863 2101.74 578.316V60.7338C2096.38 60.0538 2091.01 59.4493 2085.5 58.996C2005.02 51.6667 1926.36 63.8318 1863.94 86.0463C1807.87 105.994 1763.52 132.213 1716.37 155.863C1672.31 178.002 1625.24 199.385 1568.49 215.48C1494.36 236.41 1407.09 250.161 1321.62 259.455C1233.37 269.051 1142.31 274.265 1051.33 274.718C970.555 275.096 890.987 271.394 812.93 262.326C739.028 253.713 667.772 241.623 596.893 229.156C455.589 204.297 310.659 178.909 155.149 182.007C-2.70358 185.18 -143.856 215.404 -274.808 251.597C-378.028 280.083 -478.905 313.782 -594.82 332.143V368.261C-588.548 367.656 -582.352 367.127 -576.08 366.599C-549.708 364.558 -522.052 363.123 -495.68 365.843C-476.941 367.808 -457.067 372.341 -448 382.164C-421.628 411.103 -484.497 440.345 -520.843 455.759ZM1695.36 286.43C1703.37 257.566 1744.86 234.823 1789.97 221.298C1835.98 207.47 1893.87 199.537 1945.63 207.395C1992.55 214.573 2029.81 237.77 2033.05 264.442C2041.9 278.118 2039.7 293.155 2025.27 307.209C2002.45 329.348 1961.19 345.215 1919.03 354.736C1871.35 365.465 1812.79 370.225 1764.73 357.38C1717.5 344.762 1687.35 314.991 1695.36 286.43ZM1311.12 372.643C1334.39 365.314 1370.36 364.407 1393.18 373.021C1410.03 379.444 1417.29 390.324 1415.32 401.356C1414.94 403.32 1414.34 405.285 1413.43 407.25C1417.21 417.299 1412.9 427.499 1396.43 434.375C1376.48 442.763 1347.62 444.727 1324.04 440.118C1298.58 435.131 1277.49 423.042 1276.36 407.703C1275.23 393.8 1288.75 379.746 1311.12 372.643ZM162.327 288.168C219 257.566 300.457 238.525 372.545 241.321C438.21 243.89 512.942 257.642 555.107 286.883C574.98 300.635 586.088 317.56 583.443 335.241C580.647 354.056 566.063 371.737 544.452 386.32C498.887 417.072 428.311 435.735 358.566 443.896C275.219 453.719 111.095 447.145 93.5644 387.377C82.5321 350.127 112.984 314.765 162.327 288.168ZM-30.2843 242.001C-7.08629 228.476 27.0685 219.258 61.2987 219.333C90.6174 219.409 126.812 227.116 134.369 244.419C139.885 256.886 130.213 270.185 113.362 280.536C110.717 283.408 107.619 286.052 103.992 288.319C82.6077 301.693 44.3725 306.604 13.0137 306.227C-12.6024 305.924 -44.6414 301.24 -53.3312 286.203C-62.3988 270.789 -49.7797 253.335 -30.2843 242.001Z" fill="#07294E"/>
<path opacity="0.9" d="M29.2599 75.8457L24.046 76.2235L21.1746 80.6059L19.5122 75.7701L14.2227 74.41L18.5298 71.3121L17.9254 65.8718L22.3836 69.0453L27.1441 66.7785L25.8595 72.0677L29.2599 75.8457Z" fill="#EBF9FF"/>
<path opacity="0.9" d="M359.17 171.428L356.072 169.313L352.521 170.522L353.73 167.046L351.312 163.948L355.09 164.099L357.206 160.699L358.339 164.477L362.042 165.308L358.944 167.726L359.17 171.428Z" fill="#EBF9FF"/>
<path opacity="0.9" d="M206.305 206.186L203.736 205.279L201.469 206.79L201.696 204.146L199.429 202.408L202.149 201.803L202.981 199.083L204.416 201.577L207.137 201.426L205.399 203.692L206.305 206.186Z" fill="#EBF9FF"/>
<path opacity="0.9" d="M129.684 168.935L128.097 167.273L125.755 167.575L126.888 165.61L125.83 163.495L128.097 164.024L129.759 162.21L129.986 164.628L132.177 165.61L129.986 166.668L129.684 168.935Z" fill="#EBF9FF"/>
<path opacity="0.9" d="M1422.27 114.683L1425.37 115.817L1428.02 114.003L1427.87 117.177L1430.51 119.217L1427.34 119.897L1426.28 123.221L1424.47 120.275L1421.22 120.426L1423.33 117.706L1422.27 114.683Z" fill="#EBF9FF"/>
<path opacity="0.9" d="M1436.1 171.353L1441.32 170.975L1444.11 166.593L1445.85 171.428L1451.14 172.788L1446.83 175.886L1447.44 181.327L1442.98 178.153L1438.14 180.42L1439.5 175.206L1436.1 171.353Z" fill="#EBF9FF"/>
<path opacity="0.9" d="M1406.18 122.164L1407.46 123.448L1409.2 123.146L1408.37 124.733L1409.2 126.395L1407.39 125.942L1406.1 127.377L1405.95 125.413L1404.29 124.733L1405.95 123.901L1406.18 122.164Z" fill="#EBF9FF"/>
<path opacity="0.9" d="M629.99 284.465L622.812 284.919L618.958 290.963L616.615 284.39L609.437 282.501L615.255 278.269L614.424 270.789L620.62 275.096L627.194 271.998L625.305 279.252L629.99 284.465Z" fill="#EBF9FF"/>
<path opacity="0.9" d="M541.279 197.95L535.762 198.328L532.74 203.012L530.926 197.874L525.259 196.439L529.869 193.114L529.188 187.296L534.025 190.696L539.087 188.203L537.652 193.87L541.279 197.95Z" fill="#EBF9FF"/>
<path opacity="0.9" d="M714.773 257.566L710.314 257.868L707.972 261.571L706.536 257.491L702.078 256.357L705.705 253.713L705.176 249.104L708.954 251.824L713.035 249.859L711.901 254.317L714.773 257.566Z" fill="#EBF9FF"/>
<path opacity="0.9" d="M235.019 276.834L229.73 277.212L226.859 281.67L225.121 276.758L219.756 275.398L224.138 272.3L223.534 266.709L228.143 269.958L232.979 267.616L231.619 272.98L235.019 276.834Z" fill="#EBF9FF"/>
<path opacity="0.9" d="M414.936 295.95L411.989 293.004L407.909 293.608L409.949 290.057L407.984 286.203L412.065 287.185L415.087 284.012L415.541 288.319L419.395 290.057L415.465 291.946L414.936 295.95Z" fill="#EBF9FF"/>
<path opacity="0.9" d="M27.5219 359.723L24.4238 358.665L21.7035 360.478L21.9302 357.305L19.2855 355.189L22.4591 354.509L23.517 351.26L25.255 354.131L28.5798 354.056L26.464 356.7L27.5219 359.723Z" fill="#EBF9FF"/>
<path opacity="0.9" d="M103.312 251.899L100.29 250.841L97.5693 252.579L97.796 249.406L95.0757 247.366L98.325 246.686L99.3073 243.361L101.121 246.308L104.446 246.232L102.33 248.877L103.312 251.899Z" fill="#EBF9FF"/>
<path opacity="0.9" d="M153.033 354.282L151.673 352.922L149.784 353.149L150.69 351.562L149.859 349.749L151.748 350.202L153.109 348.767L153.26 350.731L155.073 351.562L153.26 352.393L153.033 354.282Z" fill="#EBF9FF"/>
<path opacity="0.9" d="M319.877 313.48L317.459 312.574L315.343 314.009L315.57 311.516L313.454 309.929L315.948 309.4L316.704 306.831L318.139 309.098L320.708 309.022L319.046 311.062L319.877 313.48Z" fill="#EBF9FF"/>
<path opacity="0.9" d="M436.548 231.272L434.129 230.44L432.089 231.8L432.24 229.383L430.125 227.72L432.618 227.191L433.449 224.622L434.81 226.965L437.379 226.814L435.792 228.929L436.548 231.272Z" fill="#EBF9FF"/>
<path opacity="0.9" d="M330.003 331.69L328.718 330.406L326.905 330.632L327.812 329.121L326.98 327.459L328.718 327.912L330.003 326.477L330.23 328.366L331.892 329.121L330.23 329.952L330.003 331.69Z" fill="#EBF9FF"/>
<path opacity="0.9" d="M65.077 345.82L63.7168 344.384L61.8278 344.686L62.8101 343.024L61.9033 341.286L63.7924 341.739L65.1526 340.228L65.3793 342.268L67.1172 343.024L65.3037 343.931L65.077 345.82Z" fill="#EBF9FF"/>
<path opacity="0.9" d="M413.349 137.427L410.478 135.462L407.153 136.596L408.211 133.347L405.944 130.4L409.571 130.551L411.536 127.453L412.594 131.004L416.07 131.76L413.123 134.027L413.349 137.427Z" fill="#EBF9FF"/>
<path opacity="0.9" d="M170.261 67.1563L165.048 67.5341L162.252 71.9166L160.514 67.1563L155.224 65.7963L159.531 62.6983L158.927 57.2581L163.461 60.356L168.221 58.0892L166.861 63.3784L170.261 67.1563Z" fill="#EBF9FF"/>
<path opacity="0.9" d="M346.476 42.5241L343.378 41.3907L340.733 43.2041L340.96 40.0306L338.239 37.9905L341.488 37.2349L342.471 33.9858L344.284 36.9327L347.534 36.7815L345.493 39.5017L346.476 42.5241Z" fill="#EBF9FF"/>
<path opacity="0.9" d="M823.962 87.8597L822.375 86.1974L820.033 86.5752L821.166 84.5351L820.108 82.4194L822.375 82.9483L824.037 81.2104L824.264 83.6283L826.455 84.5351L824.264 85.5929L823.962 87.8597Z" fill="#EBF9FF"/>
<path opacity="0.9" d="M1172.84 75.8457L1167.62 76.2235L1164.83 80.6059L1163.09 75.7701L1157.8 74.41L1162.11 71.3121L1161.5 65.8718L1166.04 69.0453L1170.8 66.7785L1169.44 72.0677L1172.84 75.8457Z" fill="#EBF9FF"/>
<path opacity="0.9" d="M986.424 54.4624L981.285 54.8402L978.414 59.2226L976.751 54.3868L971.462 53.0267L975.693 50.0044L975.089 44.4885L979.623 47.662L984.383 45.3197L983.023 50.6844L986.424 54.4624Z" fill="#EBF9FF"/>
<path opacity="0.9" d="M867.713 134.102L860.61 134.555L856.756 140.6L854.414 133.951L847.16 132.137L853.054 127.906L852.223 120.426L858.419 124.733L864.917 121.635L863.028 128.888L867.713 134.102Z" fill="#EBF9FF"/>
<path opacity="0.9" d="M1089.95 51.8178L1087.53 50.9867L1085.41 52.4223L1085.64 49.9288L1083.52 48.3421L1086.02 47.8132L1086.85 45.2441L1088.21 47.5109L1090.78 47.4354L1089.11 49.4755L1089.95 51.8178Z" fill="#EBF9FF"/>
<path opacity="0.9" d="M1130.52 95.0379L1128.11 94.2067L1125.99 95.5668L1126.22 93.1489L1124.1 91.4866L1126.59 90.9577L1127.35 88.3887L1128.79 90.6555L1131.35 90.5799L1129.69 92.6956L1130.52 95.0379Z" fill="#EBF9FF"/>
<path opacity="0.9" d="M1349.88 206.186L1347.32 205.279L1345.12 206.79L1345.27 204.146L1343.08 202.408L1345.73 201.803L1346.56 199.083L1348.07 201.577L1350.79 201.426L1349.05 203.692L1349.88 206.186Z" fill="#EBF9FF"/>
<path opacity="0.9" d="M1110.88 210.795L1104.23 211.248L1100.6 216.915L1098.41 210.719L1091.61 208.982L1097.12 205.052L1096.37 198.025L1102.19 202.106L1108.31 199.159L1106.57 205.959L1110.88 210.795Z" fill="#EBF9FF"/>
<path opacity="0.9" d="M1273.26 168.935L1271.68 167.273L1269.41 167.575L1270.47 165.61L1269.41 163.495L1271.68 164.024L1273.34 162.21L1273.64 164.628L1275.76 165.61L1273.57 166.668L1273.26 168.935Z" fill="#EBF9FF"/>
<path opacity="0.9" d="M923.555 237.921L919.474 238.223L917.207 241.699L915.847 237.921L911.691 236.863L915.092 234.369L914.638 230.062L918.19 232.556L921.968 230.743L920.91 234.898L923.555 237.921Z" fill="#EBF9FF"/>
<path opacity="0.9" d="M1006.9 298.595L1004.48 297.764L1002.37 299.124L1002.59 296.706L1000.48 295.044L1002.97 294.515L1003.73 291.946L1005.16 294.213L1007.73 294.137L1006.07 296.253L1006.9 298.595Z" fill="#EBF9FF"/>
<path opacity="0.9" d="M921.817 175.131L918.794 173.997L916.074 175.811L916.301 172.637L913.656 170.597L916.83 169.917L917.887 166.593L919.625 169.539L922.95 169.388L920.834 172.108L921.817 175.131Z" fill="#EBF9FF"/>
<path opacity="0.9" d="M1022.54 358.514L1017.33 358.891L1014.53 363.274L1012.87 358.514L1007.51 357.154L1011.81 354.056L1011.21 348.54L1015.74 351.713L1020.5 349.446L1019.14 354.736L1022.54 358.514Z" fill="#EBF9FF"/>
<path opacity="0.9" d="M824.264 345.14L821.846 344.308L819.806 345.744L819.957 343.251L817.841 341.664L820.41 341.059L821.166 338.566L822.526 340.833L825.095 340.757L823.508 342.797L824.264 345.14Z" fill="#EBF9FF"/>
<path opacity="0.9" d="M1016.5 354.207L1014.16 353.376L1012.04 354.736L1012.19 352.318L1010.15 350.656L1012.64 350.127L1013.48 347.558L1014.84 349.9L1017.4 349.749L1015.74 351.865L1016.5 354.207Z" fill="#EBF9FF"/>
<path opacity="0.9" d="M803.484 365.692L800.537 363.727L797.212 364.861L798.27 361.612L796.079 358.665L799.63 358.816L801.595 355.642L802.653 359.194L806.204 360.025L803.257 362.216L803.484 365.692Z" fill="#EBF9FF"/>
<path opacity="0.9" d="M782.175 175.886L778.926 174.753L776.055 176.642L776.281 173.242L773.41 171.051L776.81 170.295L777.944 166.819L779.833 169.917L783.384 169.842L781.117 172.637L782.175 175.886Z" fill="#EBF9FF"/>
<path opacity="0.9" d="M1378.67 276.834L1373.31 277.212L1370.51 281.67L1368.78 276.758L1363.33 275.398L1367.72 272.3L1367.11 266.709L1371.72 269.958L1376.56 267.616L1375.2 272.98L1378.67 276.834Z" fill="#EBF9FF"/>
<path opacity="0.9" d="M1171.1 359.723L1168 358.665L1165.36 360.478L1165.58 357.305L1162.86 355.189L1166.11 354.509L1167.1 351.26L1168.91 354.131L1172.16 354.056L1170.12 356.7L1171.1 359.723Z" fill="#EBF9FF"/>
<path opacity="0.9" d="M1246.89 251.899L1243.87 250.841L1241.15 252.579L1241.38 249.406L1238.73 247.366L1241.9 246.686L1242.96 243.361L1244.7 246.308L1248.02 246.232L1245.91 248.877L1246.89 251.899Z" fill="#EBF9FF"/>
<path opacity="0.9" d="M1296.61 354.282L1295.25 352.922L1293.36 353.149L1294.35 351.562L1293.44 349.749L1295.33 350.202L1296.69 348.767L1296.91 350.731L1298.65 351.562L1296.84 352.393L1296.61 354.282Z" fill="#EBF9FF"/>
<path opacity="0.9" d="M1208.73 345.82L1207.37 344.384L1205.48 344.686L1206.39 343.024L1205.48 341.286L1207.37 341.739L1208.81 340.228L1208.96 342.268L1210.77 343.024L1208.96 343.931L1208.73 345.82Z" fill="#EBF9FF"/>
<path opacity="0.9" d="M1313.84 67.1563L1308.7 67.5341L1305.83 71.9166L1304.17 67.1563L1298.88 65.7963L1303.11 62.6983L1302.51 57.2581L1307.04 60.356L1311.8 58.0892L1310.44 63.3784L1313.84 67.1563Z" fill="#EBF9FF"/>
<path opacity="0.9" d="M718.551 144.152L716.208 143.32L714.092 144.756L714.244 142.263L712.203 140.676L714.697 140.071L715.453 137.578L716.888 139.845L719.458 139.769L717.795 141.809L718.551 144.152Z" fill="#EBF9FF"/>
<path opacity="0.9" d="M675.857 126.697L671.701 127L669.51 130.475L668.15 126.622L663.918 125.564L667.319 123.146L666.865 118.839L670.417 121.333L674.195 119.519L673.137 123.675L675.857 126.697Z" fill="#EBF9FF"/>
<path opacity="0.9" d="M674.119 63.9074L671.021 62.774L668.376 64.5874L668.603 61.4139L665.883 59.3738L669.132 58.6182L670.114 55.3691L671.928 58.316L675.177 58.1648L673.137 60.8094L674.119 63.9074Z" fill="#EBF9FF"/>
<path opacity="0.9" d="M587.599 1054.19L585.03 1053.28L582.839 1054.79L582.99 1052.15L580.798 1050.41L583.443 1049.88L584.274 1047.09L585.786 1049.58L588.506 1049.43L586.768 1051.7L587.599 1054.19Z" fill="#EBF9FF"/>
<path opacity="0.9" d="M359.17 405.89L356.072 403.774L352.521 404.983L353.73 401.507L351.312 398.409L355.09 398.56L357.206 395.16L358.339 399.014L362.042 399.845L358.944 402.187L359.17 405.89Z" fill="#EBF9FF"/>
<path opacity="0.9" d="M598.48 654.329L597.271 653.044L595.458 653.347L596.364 651.835L595.533 650.098L597.271 650.551L598.556 649.191L598.782 651.004L600.445 651.76L598.707 652.591L598.48 654.329Z" fill="#EBF9FF"/>
<path opacity="0.9" d="M206.305 440.647L203.736 439.74L201.469 441.251L201.696 438.607L199.429 436.869L202.149 436.34L202.981 433.62L204.416 436.038L207.137 435.887L205.399 438.153L206.305 440.647Z" fill="#EBF9FF"/>
<path opacity="0.9" d="M154.922 983.013L149.708 983.391L146.837 987.773L145.174 982.937L139.885 981.577L144.192 978.479L143.588 973.039L148.046 976.137L152.806 973.87L151.522 979.159L154.922 983.013Z" fill="#EBF9FF"/>
<path opacity="0.9" d="M129.684 403.396L128.097 401.734L125.755 402.036L126.888 400.071L125.83 397.956L128.097 398.485L129.759 396.747L129.986 399.165L132.177 400.071L129.986 401.129L129.684 403.396Z" fill="#EBF9FF"/>
<path opacity="0.9" d="M250.737 1073.84L245.523 1074.21L242.727 1078.6L240.989 1073.76L235.7 1072.48L240.007 1069.38L239.402 1063.86L243.936 1067.03L248.697 1064.77L247.336 1070.06L250.737 1073.84Z" fill="#EBF9FF"/>
<path opacity="0.9" d="M513.244 992.382L510.298 990.417L506.973 991.551L508.106 988.302L505.839 985.355L509.391 985.506L511.355 982.333L512.413 985.884L515.889 986.639L513.018 988.906L513.244 992.382Z" fill="#EBF9FF"/>
<path opacity="0.9" d="M376.399 910.022L373.452 908.058L370.127 909.191L371.261 905.942L368.994 902.995L372.545 903.146L374.585 899.973L375.643 903.524L379.119 904.355L376.172 906.547L376.399 910.022Z" fill="#EBF9FF"/>
<path opacity="0.9" d="M377.079 1041.27L375.794 1039.98L374.056 1040.21L374.963 1038.7L374.132 1036.96L375.87 1037.42L377.155 1036.06L377.381 1037.94L379.044 1038.7L377.306 1039.53L377.079 1041.27Z" fill="#EBF9FF"/>
<path opacity="0.9" d="M107.695 1109.42L104.672 1108.37L101.952 1110.1L102.179 1107.01L99.4584 1104.89L102.708 1104.21L103.766 1100.96L105.503 1103.83L108.828 1103.76L106.713 1106.4L107.695 1109.42Z" fill="#EBF9FF"/>
<path opacity="0.9" d="M58.4274 1064.84L53.2891 1065.15L50.4177 1069.6L48.7553 1064.77L43.4658 1063.41L47.773 1060.31L47.1684 1054.87L51.6267 1058.04L56.3872 1055.7L55.027 1060.99L58.4274 1064.84Z" fill="#EBF9FF"/>
<path opacity="0.9" d="M133.311 839.752L128.097 840.13L125.301 844.512L123.563 839.676L118.274 838.316L122.581 835.294L121.976 829.778L126.51 832.952L131.271 830.685L129.911 835.974L133.311 839.752Z" fill="#EBF9FF"/>
<path opacity="0.9" d="M162.025 1159.37L157.869 1159.67L155.678 1163.15L154.318 1159.37L150.086 1158.23L153.486 1155.82L153.033 1151.51L156.584 1154L160.363 1152.19L159.305 1156.35L162.025 1159.37Z" fill="#EBF9FF"/>
<path opacity="0.9" d="M184.845 1032.2L183.561 1030.92L181.747 1031.14L182.654 1029.63L181.823 1027.97L183.561 1028.42L184.921 1026.99L185.072 1028.88L186.734 1029.63L185.072 1030.46L184.845 1032.2Z" fill="#EBF9FF"/>
<path opacity="0.9" d="M148.877 978.63L146.459 977.799L144.343 979.159L144.57 976.741L142.454 975.155L144.948 974.55L145.779 972.057L147.139 974.323L149.708 974.172L148.046 976.288L148.877 978.63Z" fill="#EBF9FF"/>
<path opacity="0.9" d="M501.381 1085.24L496.243 1085.62L493.371 1090L491.709 1085.24L486.419 1083.88L490.651 1080.79L490.122 1075.35L494.58 1078.44L499.341 1076.18L498.056 1081.47L501.381 1085.24Z" fill="#EBF9FF"/>
<path opacity="0.9" d="M281.491 1136.63L278.62 1133.68L274.539 1134.21L276.504 1130.73L274.615 1126.8L278.695 1127.86L281.642 1124.61L282.096 1128.99L285.949 1130.66L282.02 1132.62L281.491 1136.63Z" fill="#EBF9FF"/>
<path opacity="0.9" d="M531.38 1134.51L530.095 1133.22L528.282 1133.45L529.188 1131.94L528.357 1130.28L530.095 1130.73L531.455 1129.3L531.606 1131.18L533.269 1131.94L531.606 1132.77L531.38 1134.51Z" fill="#EBF9FF"/>
<path opacity="0.9" d="M303.102 1071.95L300.76 1071.04L298.644 1072.48L298.795 1069.98L296.755 1068.39L299.248 1067.87L300.004 1065.3L301.364 1067.56L303.933 1067.49L302.347 1069.6L303.102 1071.95Z" fill="#EBF9FF"/>
<path opacity="0.9" d="M495.412 1080.94L492.993 1080.11L490.878 1081.47L491.104 1079.05L488.989 1077.39L491.482 1076.86L492.238 1074.29L493.674 1076.63L496.243 1076.48L494.58 1078.6L495.412 1080.94Z" fill="#EBF9FF"/>
<path opacity="0.9" d="M629.99 518.926L622.812 519.455L618.958 525.425L616.615 518.851L609.437 517.038L615.255 512.806L614.424 505.25L620.62 509.633L627.194 506.459L625.305 513.713L629.99 518.926Z" fill="#EBF9FF"/>
<path opacity="0.9" d="M648.654 704.047L645.556 702.914L642.912 704.727L643.063 701.554L640.418 699.513L643.592 698.833L644.65 695.509L646.463 698.456L649.712 698.304L647.597 701.025L648.654 704.047Z" fill="#EBF9FF"/>
<path opacity="0.9" d="M699.433 632.492L696.184 631.359L693.312 633.248L693.539 629.848L690.668 627.657L694.068 626.901L695.202 623.425L697.091 626.523L700.567 626.448L698.375 629.243L699.433 632.492Z" fill="#EBF9FF"/>
<path opacity="0.9" d="M259.351 765.401L258.142 764.117L256.328 764.344L257.16 762.832L256.328 761.17L258.142 761.623L259.426 760.188L259.653 762.077L261.316 762.832L259.578 763.663L259.351 765.401Z" fill="#EBF9FF"/>
<path opacity="0.9" d="M309.525 815.044L306.427 813.986L303.707 815.8L303.933 812.626L301.289 810.51L304.462 809.83L305.52 806.581L307.258 809.453L310.583 809.377L308.467 812.022L309.525 815.044Z" fill="#EBF9FF"/>
<path opacity="0.9" d="M360.304 743.565L356.979 742.356L354.183 744.32L354.41 740.92L351.539 738.729L354.939 737.973L355.997 734.498L357.961 737.595L361.437 737.444L359.246 740.316L360.304 743.565Z" fill="#EBF9FF"/>
<path opacity="0.9" d="M951.135 676.015L949.851 674.73L948.037 674.957L948.944 673.446L948.113 671.783L949.851 672.161L951.135 670.801L951.362 672.69L953.024 673.446L951.362 674.277L951.135 676.015Z" fill="#EBF9FF"/>
<path opacity="0.9" d="M541.279 432.411L535.762 432.788L532.74 437.473L530.926 432.335L525.259 430.9L529.869 427.575L529.188 421.757L534.025 425.157L539.087 422.739L537.652 428.331L541.279 432.411Z" fill="#EBF9FF"/>
<path opacity="0.9" d="M714.773 492.027L710.314 492.329L707.972 496.032L706.536 491.952L702.078 490.818L705.705 488.249L705.176 483.564L708.954 486.285L713.035 484.32L711.901 488.778L714.773 492.027Z" fill="#EBF9FF"/>
<path opacity="0.9" d="M219.68 673.446L214.088 673.899L211.141 678.584L209.328 673.446L203.661 672.01L208.194 668.685L207.59 662.867L212.426 666.192L217.489 663.774L216.053 669.441L219.68 673.446Z" fill="#EBF9FF"/>
<path opacity="0.9" d="M309.525 639.368L303.933 639.746L300.986 644.431L299.173 639.293L293.506 637.857L298.115 634.532L297.435 628.714L302.271 632.039L307.334 629.621L305.898 635.288L309.525 639.368Z" fill="#EBF9FF"/>
<path opacity="0.9" d="M463.524 645.489L461.106 643.071L457.705 643.524L459.368 640.577L457.781 637.404L461.106 638.235L463.599 635.59L463.977 639.217L467.151 640.577L463.901 642.164L463.524 645.489Z" fill="#EBF9FF"/>
<path opacity="0.9" d="M76.3359 625.39L73.7668 624.559L71.5754 625.994L71.7265 623.35L69.5352 621.612L72.1799 621.083L73.0111 618.363L74.5224 620.781L77.2427 620.705L75.5047 622.896L76.3359 625.39Z" fill="#EBF9FF"/>
<path opacity="0.9" d="M235.019 511.37L229.73 511.673L226.859 516.131L225.121 511.295L219.756 509.935L224.138 506.761L223.534 501.17L228.143 504.419L232.979 502.077L231.619 507.441L235.019 511.37Z" fill="#EBF9FF"/>
<path opacity="0.9" d="M414.936 530.487L411.989 527.54L407.909 528.069L409.949 524.518L407.984 520.664L412.065 521.647L415.087 518.473L415.541 522.856L419.395 524.518L415.465 526.407L414.936 530.487Z" fill="#EBF9FF"/>
<path opacity="0.9" d="M27.5219 594.184L24.4238 593.126L21.7035 594.939L21.9302 591.766L19.2855 589.65L22.4591 588.97L23.517 585.721L25.255 588.592L28.5798 588.517L26.464 591.161L27.5219 594.184Z" fill="#EBF9FF"/>
<path opacity="0.9" d="M103.312 486.36L100.29 485.303L97.5693 487.116L97.796 483.942L95.0757 481.827L98.325 481.147L99.3073 477.898L101.121 480.769L104.446 480.693L102.33 483.338L103.312 486.36Z" fill="#EBF9FF"/>
<path opacity="0.9" d="M153.033 588.743L151.673 587.383L149.784 587.686L150.69 586.023L149.859 584.21L151.748 584.739L153.109 583.228L153.26 585.268L155.073 586.023L153.26 586.93L153.033 588.743Z" fill="#EBF9FF"/>
<path opacity="0.9" d="M397.103 659.392L393.023 659.694L390.756 663.169L389.396 659.316L385.24 658.258L388.64 655.84L388.187 651.458L391.738 654.027L395.516 652.213L394.459 656.369L397.103 659.392Z" fill="#EBF9FF"/>
<path opacity="0.9" d="M319.877 547.941L317.459 547.11L315.343 548.47L315.57 545.977L313.454 544.39L315.948 543.861L316.704 541.292L318.139 543.559L320.708 543.483L319.046 545.599L319.877 547.941Z" fill="#EBF9FF"/>
<path opacity="0.9" d="M436.548 465.733L434.129 464.901L432.089 466.337L432.24 463.844L430.125 462.257L432.618 461.652L433.449 459.159L434.81 461.426L437.379 461.35L435.792 463.39L436.548 465.733Z" fill="#EBF9FF"/>
<path opacity="0.9" d="M274.615 616.171L269.325 616.549L266.454 621.007L264.716 616.171L259.351 614.736L263.734 611.638L263.129 606.046L267.738 609.22L272.575 606.953L271.214 612.318L274.615 616.171Z" fill="#EBF9FF"/>
<path opacity="0.9" d="M330.003 566.151L328.718 564.867L326.905 565.169L327.812 563.658L326.98 561.92L328.718 562.373L330.003 561.013L330.23 562.902L331.892 563.582L330.23 564.413L330.003 566.151Z" fill="#EBF9FF"/>
<path opacity="0.9" d="M40.7455 715.91L36.3628 716.212L33.9448 719.915L32.5091 715.91L28.0508 714.777L31.6779 712.132L31.149 707.523L35.0027 710.168L39.0076 708.279L37.8741 712.737L40.7455 715.91Z" fill="#EBF9FF"/>
<path opacity="0.9" d="M65.077 580.281L63.7168 578.921L61.8278 579.147L62.8101 577.561L61.9033 575.747L63.7924 576.201L65.1526 574.689L65.3793 576.73L67.1172 577.485L65.3037 578.392L65.077 580.281Z" fill="#EBF9FF"/>
<path opacity="0.9" d="M361.135 990.72L354.486 991.173L350.858 996.764L348.667 990.644L341.866 988.906L347.383 984.902L346.627 977.875L352.445 981.955L358.566 979.008L356.828 985.808L361.135 990.72Z" fill="#EBF9FF"/>
<path opacity="0.9" d="M686.436 1056.99L681.147 1057.36L678.275 1061.82L676.537 1056.99L671.172 1055.55L675.555 1052.45L674.951 1046.86L679.56 1050.03L684.396 1047.77L683.036 1053.13L686.436 1056.99Z" fill="#EBF9FF"/>
<path opacity="0.9" d="M681.6 916.747L679.258 915.916L677.142 917.276L677.293 914.858L675.177 913.196L677.746 912.667L678.502 910.098L679.862 912.365L682.431 912.289L680.845 914.405L681.6 916.747Z" fill="#EBF9FF"/>
<path opacity="0.9" d="M638.831 899.293L634.751 899.519L632.484 903.071L631.124 899.217L626.968 898.159L630.368 895.741L629.915 891.359L633.466 893.852L637.244 892.114L636.186 896.27L638.831 899.293Z" fill="#EBF9FF"/>
<path opacity="0.9" d="M722.178 959.967L719.76 959.06L717.72 960.496L717.871 958.003L715.755 956.416L718.248 955.811L719.08 953.318L720.44 955.585L723.009 955.509L721.347 957.549L722.178 959.967Z" fill="#EBF9FF"/>
<path opacity="0.9" d="M50.4177 815.8L47.9996 814.893L45.8838 816.329L46.1105 813.835L43.9948 812.248L46.4883 811.719L47.244 809.15L48.6797 811.417L51.2488 811.342L49.5864 813.457L50.4177 815.8Z" fill="#EBF9FF"/>
<path opacity="0.9" d="M90.9197 858.944L88.5773 858.113L86.4615 859.473L86.6126 857.055L84.5724 855.393L87.066 854.864L87.8217 852.295L89.2573 854.562L91.8265 854.486L90.1641 856.602L90.9197 858.944Z" fill="#EBF9FF"/>
<path opacity="0.9" d="M637.169 836.427L634.071 835.369L631.426 837.183L631.577 834.009L628.932 831.894L632.106 831.214L633.164 827.965L634.977 830.836L638.227 830.76L636.111 833.405L637.169 836.427Z" fill="#EBF9FF"/>
<path opacity="0.9" d="M1397.94 1077.69L1402.02 1077.39L1404.29 1073.91L1405.65 1077.69L1409.81 1078.82L1406.41 1081.24L1406.86 1085.55L1403.31 1083.05L1399.53 1084.87L1400.59 1080.71L1397.94 1077.69Z" fill="#EBF9FF"/>
<path opacity="0.9" d="M1391.67 934.05L1394.69 935.184L1397.41 933.37L1397.19 936.544L1399.91 938.584L1396.66 939.339L1395.68 942.588L1393.86 939.717L1390.54 939.793L1392.65 937.073L1391.67 934.05Z" fill="#EBF9FF"/>
<path opacity="0.9" d="M1378.45 812.399L1382.83 812.097L1385.17 808.319L1386.61 812.399L1391.14 813.533L1387.51 816.177L1387.97 820.786L1384.19 818.142L1380.11 820.031L1381.32 815.573L1378.45 812.399Z" fill="#EBF9FF"/>
<path opacity="0.9" d="M1436.1 405.814L1441.32 405.512L1444.11 401.129L1445.85 405.889L1451.14 407.249L1446.83 410.347L1447.44 415.788L1442.98 412.69L1438.14 414.957L1439.5 409.667L1436.1 405.814Z" fill="#EBF9FF"/>
<path opacity="0.9" d="M973.2 1143.2L967.608 1143.58L964.586 1148.26L962.772 1143.12L957.18 1141.69L961.714 1138.36L961.11 1132.54L965.87 1135.95L971.009 1133.45L969.573 1139.12L973.2 1143.2Z" fill="#EBF9FF"/>
<path opacity="0.9" d="M1127.12 1149.39L1124.7 1146.9L1121.3 1147.35L1122.97 1144.48L1121.38 1141.23L1124.78 1142.07L1127.27 1139.42L1127.65 1143.05L1130.83 1144.41L1127.58 1145.99L1127.12 1149.39Z" fill="#EBF9FF"/>
<path opacity="0.9" d="M1349.88 440.647L1347.32 439.74L1345.12 441.251L1345.27 438.607L1343.08 436.869L1345.73 436.34L1346.56 433.62L1348.07 436.038L1350.79 435.887L1349.05 438.153L1349.88 440.647Z" fill="#EBF9FF"/>
<path opacity="0.9" d="M1298.5 983.013L1293.29 983.391L1290.49 987.773L1288.75 982.937L1283.46 981.577L1287.77 978.479L1287.17 973.039L1291.7 976.137L1296.46 973.87L1295.1 979.159L1298.5 983.013Z" fill="#EBF9FF"/>
<path opacity="0.9" d="M898.694 1015.2L893.405 1015.58L890.533 1020.04L888.795 1015.13L883.43 1013.77L887.738 1010.59L887.133 1005.08L891.742 1008.25L896.578 1005.91L895.218 1011.35L898.694 1015.2Z" fill="#EBF9FF"/>
<path opacity="0.9" d="M927.106 683.193L923.403 680.624L919.096 682.135L920.532 677.903L917.661 674.125L922.194 674.352L924.764 670.272L926.124 674.881L930.658 675.863L926.879 678.735L927.106 683.193Z" fill="#EBF9FF"/>
<path opacity="0.9" d="M1078.61 1034.32L1075.66 1031.37L1071.58 1031.9L1073.55 1028.42L1071.66 1024.57L1075.74 1025.55L1078.76 1022.3L1079.14 1026.69L1082.99 1028.35L1079.14 1030.31L1078.61 1034.32Z" fill="#EBF9FF"/>
<path opacity="0.9" d="M928.013 851.766L926.426 850.104L924.159 850.481L925.217 848.517L924.159 846.326L926.426 846.93L928.089 845.117L928.391 847.535L930.507 848.441L928.315 849.575L928.013 851.766Z" fill="#EBF9FF"/>
<path opacity="0.9" d="M1110.88 445.331L1104.23 445.785L1100.6 451.376L1098.41 445.256L1091.61 443.518L1097.12 439.513L1096.37 432.486L1102.19 436.567L1108.31 433.62L1106.57 440.42L1110.88 445.331Z" fill="#EBF9FF"/>
<path opacity="0.9" d="M1273.26 403.396L1271.68 401.734L1269.41 402.036L1270.47 400.071L1269.41 397.956L1271.68 398.485L1273.34 396.747L1273.64 399.165L1275.76 400.071L1273.57 401.129L1273.26 403.396Z" fill="#EBF9FF"/>
<path opacity="0.9" d="M1036.37 649.644L1033.35 648.586L1030.63 650.4L1030.85 647.226L1028.21 645.111L1031.38 644.431L1032.37 641.182L1034.18 644.128L1037.5 643.977L1035.39 646.622L1036.37 649.644Z" fill="#EBF9FF"/>
<path opacity="0.9" d="M1394.32 1073.84L1389.1 1074.21L1386.31 1078.6L1384.64 1073.76L1379.28 1072.48L1383.59 1069.38L1382.98 1063.86L1387.51 1067.03L1392.28 1064.77L1390.92 1070.06L1394.32 1073.84Z" fill="#EBF9FF"/>
<path opacity="0.9" d="M1251.35 1109.42L1248.25 1108.37L1245.53 1110.1L1245.76 1107.01L1243.11 1104.89L1246.29 1104.21L1247.34 1100.96L1249.08 1103.83L1252.41 1103.76L1250.29 1106.4L1251.35 1109.42Z" fill="#EBF9FF"/>
<path opacity="0.9" d="M923.555 472.457L919.474 472.684L917.207 476.16L915.847 472.382L911.691 471.324L915.092 468.831L914.638 464.524L918.19 467.017L921.968 465.204L920.91 469.435L923.555 472.457Z" fill="#EBF9FF"/>
<path opacity="0.9" d="M816.708 1092.65L815.348 1091.21L813.458 1091.52L814.365 1089.85L813.458 1088.12L815.348 1088.57L816.783 1087.06L816.934 1089.1L818.748 1089.85L816.934 1090.76L816.708 1092.65Z" fill="#EBF9FF"/>
<path opacity="0.9" d="M1202.08 1064.84L1196.87 1065.15L1194 1069.6L1192.33 1064.77L1187.04 1063.41L1191.35 1060.31L1190.75 1054.87L1195.21 1058.04L1200.04 1055.7L1198.68 1060.99L1202.08 1064.84Z" fill="#EBF9FF"/>
<path opacity="0.9" d="M1276.89 839.752L1271.68 840.13L1268.88 844.512L1267.14 839.676L1261.85 838.316L1266.16 835.294L1265.56 829.778L1270.09 832.952L1274.85 830.685L1273.49 835.974L1276.89 839.752Z" fill="#EBF9FF"/>
<path opacity="0.9" d="M1305.6 1159.37L1301.45 1159.67L1299.26 1163.15L1297.9 1159.37L1293.67 1158.23L1297.07 1155.82L1296.61 1151.51L1300.24 1154L1303.94 1152.19L1302.88 1156.35L1305.6 1159.37Z" fill="#EBF9FF"/>
<path opacity="0.9" d="M1060.78 1163.22L1056.62 1163.52L1054.43 1167L1053.07 1163.22L1048.91 1162.09L1052.24 1159.67L1051.79 1155.36L1055.34 1157.86L1059.12 1156.04L1058.06 1160.2L1060.78 1163.22Z" fill="#EBF9FF"/>
<path opacity="0.9" d="M1328.42 1032.2L1327.14 1030.92L1325.4 1031.14L1326.23 1029.63L1325.4 1027.97L1327.22 1028.42L1328.5 1026.99L1328.65 1028.88L1330.31 1029.63L1328.65 1030.46L1328.42 1032.2Z" fill="#EBF9FF"/>
<path opacity="0.9" d="M983.477 1051.77L981.134 1050.94L979.018 1052.3L979.169 1049.88L977.129 1048.22L979.623 1047.69L980.379 1045.2L981.739 1047.47L984.308 1047.31L982.721 1049.43L983.477 1051.77Z" fill="#EBF9FF"/>
<path opacity="0.9" d="M1100.15 969.639L1097.8 968.732L1095.69 970.168L1095.84 967.674L1093.8 966.087L1096.29 965.558L1097.12 962.99L1098.48 965.256L1101.05 965.181L1099.39 967.296L1100.15 969.639Z" fill="#EBF9FF"/>
<path opacity="0.9" d="M938.289 1120L933 1120.38L930.129 1124.91L928.391 1120L923.026 1118.64L927.408 1115.47L926.804 1109.88L931.338 1113.13L936.174 1110.78L934.814 1116.15L938.289 1120Z" fill="#EBF9FF"/>
<path opacity="0.9" d="M967.608 956.642L966.021 954.98L963.755 955.358L964.888 953.318L963.755 951.202L966.097 951.731L967.684 949.993L967.986 952.411L970.102 953.318L967.911 954.376L967.608 956.642Z" fill="#EBF9FF"/>
<path opacity="0.9" d="M993.602 1070.06L992.317 1068.77L990.58 1069L991.486 1067.49L990.655 1065.83L992.393 1066.2L993.678 1064.84L993.904 1066.73L995.491 1067.49L993.829 1068.32L993.602 1070.06Z" fill="#EBF9FF"/>
<path opacity="0.9" d="M1006.9 533.056L1004.48 532.225L1002.37 533.661L1002.59 531.167L1000.48 529.505L1002.97 528.976L1003.73 526.482L1005.16 528.749L1007.73 528.598L1006.07 530.714L1006.9 533.056Z" fill="#EBF9FF"/>
<path opacity="0.9" d="M921.817 409.592L918.794 408.534L916.074 410.272L916.301 407.098L913.656 405.058L916.83 404.378L917.887 401.129L919.625 404L922.95 403.925L920.834 406.569L921.817 409.592Z" fill="#EBF9FF"/>
<path opacity="0.9" d="M1292.46 978.63L1290.04 977.799L1288 979.159L1288.15 976.741L1286.03 975.155L1288.53 974.55L1289.36 972.057L1290.72 974.323L1293.29 974.172L1291.7 976.288L1292.46 978.63Z" fill="#EBF9FF"/>
<path opacity="0.9" d="M1425.15 1136.63L1422.2 1133.68L1418.12 1134.21L1420.08 1130.73L1418.19 1126.8L1422.27 1127.86L1425.3 1124.61L1425.67 1128.99L1429.53 1130.66L1425.67 1132.62L1425.15 1136.63Z" fill="#EBF9FF"/>
<path opacity="0.9" d="M1090.47 818.369L1085.34 818.746L1082.46 823.129L1080.8 818.293L1075.51 817.009L1079.82 813.911L1079.22 808.395L1083.67 811.568L1088.51 809.302L1087.15 814.591L1090.47 818.369Z" fill="#EBF9FF"/>
<path opacity="0.9" d="M851.24 759.432L848.822 756.939L845.422 757.468L847.084 754.521L845.498 751.272L848.822 752.103L851.316 749.458L851.694 753.085L854.867 754.445L851.694 756.032L851.24 759.432Z" fill="#EBF9FF"/>
<path opacity="0.9" d="M1022.54 593.05L1017.33 593.352L1014.53 597.735L1012.87 592.975L1007.51 591.615L1011.81 588.517L1011.21 583.076L1015.74 586.174L1020.5 583.908L1019.14 589.197L1022.54 593.05Z" fill="#EBF9FF"/>
<path opacity="0.9" d="M802.653 644.355L799.781 641.408L795.625 641.937L797.666 638.462L795.777 634.533L799.857 635.59L802.804 632.341L803.257 636.724L807.111 638.386L803.182 640.351L802.653 644.355Z" fill="#EBF9FF"/>
<path opacity="0.9" d="M975.391 719.461L972.293 718.403L969.648 720.217L969.875 717.043L967.155 714.928L970.404 714.248L971.386 710.999L973.2 713.87L976.525 713.794L974.409 716.439L975.391 719.461Z" fill="#EBF9FF"/>
<path opacity="0.9" d="M942.748 734.724L937.61 735.102L934.738 739.485L933.076 734.649L927.786 733.289L932.093 730.266L931.489 724.75L935.947 727.924L940.708 725.657L939.348 730.946L942.748 734.724Z" fill="#EBF9FF"/>
<path opacity="0.9" d="M1052.54 642.239L1051.26 640.955L1049.44 641.182L1050.35 639.67L1049.52 638.008L1051.26 638.461L1052.54 637.026L1052.77 638.915L1054.43 639.67L1052.77 640.502L1052.54 642.239Z" fill="#EBF9FF"/>
<path opacity="0.9" d="M824.264 579.676L821.846 578.77L819.806 580.205L819.957 577.712L817.841 576.125L820.41 575.596L821.166 573.027L822.526 575.294L825.095 575.218L823.508 577.334L824.264 579.676Z" fill="#EBF9FF"/>
<path opacity="0.9" d="M1016.5 588.668L1014.16 587.837L1012.04 589.197L1012.19 586.779L1010.15 585.117L1012.64 584.588L1013.48 582.094L1014.84 584.361L1017.4 584.21L1015.74 586.326L1016.5 588.668Z" fill="#EBF9FF"/>
<path opacity="0.9" d="M781.344 858.566L777.188 858.868L774.997 862.344L773.637 858.491L769.405 857.433L772.805 855.015L772.352 850.632L775.903 853.126L779.682 851.388L778.624 855.544L781.344 858.566Z" fill="#EBF9FF"/>
<path opacity="0.9" d="M803.484 600.153L800.537 598.188L797.212 599.322L798.27 596.073L796.079 593.126L799.63 593.277L801.595 590.104L802.653 593.73L806.204 594.486L803.257 596.753L803.484 600.153Z" fill="#EBF9FF"/>
<path opacity="0.9" d="M804.164 731.4L802.88 730.115L801.142 730.342L801.973 728.831L801.142 727.168L802.955 727.546L804.24 726.186L804.391 728.075L806.053 728.831L804.391 729.662L804.164 731.4Z" fill="#EBF9FF"/>
<path opacity="0.9" d="M782.175 410.347L778.926 409.214L776.055 411.103L776.281 407.778L773.41 405.512L776.81 404.832L777.944 401.28L779.833 404.378L783.384 404.303L781.117 407.174L782.175 410.347Z" fill="#EBF9FF"/>
<path opacity="0.9" d="M1402.93 765.401L1401.72 764.117L1399.91 764.344L1400.81 762.832L1399.98 761.17L1401.72 761.623L1403.01 760.188L1403.23 762.077L1404.89 762.832L1403.16 763.663L1402.93 765.401Z" fill="#EBF9FF"/>
<path opacity="0.9" d="M905.042 934.05L900.659 934.352L898.241 938.055L896.805 933.974L892.347 932.841L895.974 930.197L895.445 925.587L899.299 928.308L903.304 926.343L902.17 930.801L905.042 934.05Z" fill="#EBF9FF"/>
<path opacity="0.9" d="M971.764 898.008L964.661 898.537L960.807 904.506L958.465 897.933L951.211 896.044L957.105 891.812L956.274 884.332L962.47 888.639L968.968 885.541L967.155 892.795L971.764 898.008Z" fill="#EBF9FF"/>
<path opacity="0.9" d="M1363.26 673.446L1357.74 673.899L1354.72 678.584L1352.91 673.446L1347.24 672.01L1351.85 668.685L1351.17 662.867L1356 666.192L1361.07 663.774L1359.63 669.441L1363.26 673.446Z" fill="#EBF9FF"/>
<path opacity="0.9" d="M1219.92 625.39L1217.42 624.559L1215.15 625.994L1215.31 623.35L1213.11 621.612L1215.76 621.083L1216.59 618.363L1218.1 620.781L1220.82 620.705L1219.08 622.896L1219.92 625.39Z" fill="#EBF9FF"/>
<path opacity="0.9" d="M1378.67 511.37L1373.31 511.673L1370.51 516.131L1368.78 511.295L1363.33 509.935L1367.72 506.761L1367.11 501.17L1371.72 504.419L1376.56 502.077L1375.2 507.441L1378.67 511.37Z" fill="#EBF9FF"/>
<path opacity="0.9" d="M1171.1 594.184L1168 593.126L1165.36 594.939L1165.58 591.766L1162.86 589.65L1166.11 588.97L1167.1 585.721L1168.91 588.592L1172.16 588.517L1170.12 591.161L1171.1 594.184Z" fill="#EBF9FF"/>
<path opacity="0.9" d="M1246.89 486.36L1243.87 485.303L1241.15 487.116L1241.38 483.942L1238.73 481.827L1241.9 481.147L1242.96 477.898L1244.7 480.769L1248.02 480.693L1245.91 483.338L1246.89 486.36Z" fill="#EBF9FF"/>
<path opacity="0.9" d="M1296.61 588.743L1295.25 587.383L1293.36 587.686L1294.35 586.023L1293.44 584.21L1295.33 584.739L1296.69 583.228L1296.91 585.268L1298.65 586.023L1296.84 586.93L1296.61 588.743Z" fill="#EBF9FF"/>
<path opacity="0.9" d="M1418.27 616.171L1412.98 616.549L1410.11 621.007L1408.37 616.171L1402.93 614.736L1407.31 611.638L1406.71 606.046L1411.32 609.22L1416.15 606.953L1414.79 612.318L1418.27 616.171Z" fill="#EBF9FF"/>
<path opacity="0.9" d="M1184.32 715.91L1179.94 716.212L1177.6 719.915L1176.09 715.91L1171.63 714.777L1175.26 712.132L1174.73 707.523L1178.58 710.168L1182.59 708.279L1181.45 712.737L1184.32 715.91Z" fill="#EBF9FF"/>
<path opacity="0.9" d="M1208.73 580.281L1207.37 578.921L1205.48 579.147L1206.39 577.561L1205.48 575.747L1207.37 576.201L1208.81 574.689L1208.96 576.73L1210.77 577.485L1208.96 578.392L1208.73 580.281Z" fill="#EBF9FF"/>
<path opacity="0.9" d="M1194 815.8L1191.58 814.893L1189.54 816.329L1189.69 813.835L1187.57 812.248L1190.07 811.719L1190.9 809.15L1192.26 811.417L1194.83 811.342L1193.24 813.457L1194 815.8Z" fill="#EBF9FF"/>
<path opacity="0.9" d="M1234.57 858.944L1232.16 858.113L1230.04 859.473L1230.27 857.055L1228.15 855.393L1230.65 854.864L1231.48 852.295L1232.84 854.562L1235.41 854.486L1233.74 856.602L1234.57 858.944Z" fill="#EBF9FF"/>
<path opacity="0.9" d="M578.002 936.846L570.899 937.375L567.046 943.344L564.703 936.77L557.449 934.957L563.343 930.725L562.512 923.169L568.708 927.552L575.207 924.378L573.393 931.632L578.002 936.846Z" fill="#EBF9FF"/>
<path opacity="0.9" d="M594.022 1058.8L588.506 1059.18L585.483 1063.86L583.67 1058.72L578.002 1057.29L582.612 1054.04L581.932 1048.15L586.768 1051.55L591.831 1049.13L590.395 1054.79L594.022 1058.8Z" fill="#EBF9FF"/>
<path opacity="0.9" d="M696.259 1155.74L690.743 1156.12L687.721 1160.8L685.907 1155.67L680.24 1154.23L684.849 1150.98L684.245 1145.16L689.005 1148.49L694.144 1146.07L692.708 1151.74L696.259 1155.74Z" fill="#EBF9FF"/>
</g>
<defs>
<linearGradient id="paint0_linear_17_647" x1="779.677" y1="4.86434" x2="779.677" y2="1135.61" gradientUnits="userSpaceOnUse">
<stop stop-color="#0C2F6D"/>
<stop offset="1" stop-color="#0E1633"/>
</linearGradient>
<clipPath id="clip0_17_647">
<rect width="2809" height="1202" fill="white" transform="translate(-619 -35)"/>
</clipPath>
</defs>
</svg>
