<svg width="173" height="173" viewBox="0 0 173 173" fill="none" xmlns="http://www.w3.org/2000/svg">
<g clip-path="url(#clip0_38_8353)">
<path d="M172.495 95.8713C177.685 48.418 143.37 5.69628 95.871 0.505365C48.4178 -4.68555 5.69604 29.6296 0.505121 77.0829C-4.6858 124.582 29.6294 167.258 77.0827 172.449C124.628 177.686 167.304 143.37 172.495 95.8713Z" fill="#D19C48"/>
<path d="M97.6166 32.2941C102.67 42.4003 112.225 49.4747 123.755 49.934C133.218 50.3015 143.6 46.6266 149.296 38.7253C151.088 36.2447 152.19 33.6722 152.833 31.0079C140.706 16.4917 123.847 5.92607 104.232 1.83765C96.0547 9.64699 92.1041 21.2691 97.6166 32.2941Z" fill="#935F25"/>
<path d="M46.672 36.7959C55.0326 49.888 67.7572 61.2345 80.9872 69.1817C93.6199 76.8073 107.217 81.4929 121.963 82.5954C138.914 83.8357 157.886 80.9417 171.622 71.0192C170.197 63.2098 167.717 55.7221 164.318 48.7396C159.586 58.7539 148.791 64.4042 138.179 66.058C124.811 68.0792 111.49 64.1286 100.511 56.3652C88.7506 48.0505 79.7009 36.4743 74.3263 23.1984C71.7538 16.8131 69.1353 9.37129 68.3085 1.92944C56.5945 4.456 45.6614 9.41723 36.1523 16.216C38.9086 23.3822 42.5376 30.3187 46.672 36.7959Z" fill="#935F25"/>
<path d="M18.099 85.903C43.824 107.953 75.3829 122.745 109.239 126.052C127.43 127.798 147.734 127.293 165.696 121.367C169.141 113.465 171.484 104.921 172.494 95.9173C172.54 95.6877 172.54 95.458 172.54 95.1823C167.028 98.0305 161.194 100.281 155.268 101.981C137.49 107.034 118.105 108.229 99.8675 104.783C70.1001 99.133 43.5483 81.0796 24.714 57.6515C20.5337 52.4606 16.4912 46.9941 12.8162 41.2979C7.39564 50.1178 3.44503 60.0403 1.46973 70.6977C6.79846 75.9805 12.4028 80.9877 18.099 85.903Z" fill="#935F25"/>
<path d="M90.2665 160.229C105.977 161.056 121.78 160.092 136.939 156.692C143.738 151.777 149.801 145.943 154.946 139.282C147.413 141.9 139.603 143.738 131.702 144.886C102.761 148.975 73.5913 143.508 46.5342 132.989C31.6964 127.201 16.5371 119.759 3.30713 110.112C6.15524 120.126 10.7949 129.497 16.9046 137.766C39.4598 150.537 64.0822 158.851 90.2665 160.229Z" fill="#935F25"/>
<path d="M123.755 49.934C133.218 50.3015 143.6 46.6266 149.296 38.7253C151.088 36.2447 152.19 33.6722 152.833 31.0079C151.363 29.2622 149.801 27.5166 148.194 25.9088C145.897 31.4213 140.522 35.8313 134.642 37.9444C126.236 40.9763 116.451 39.5981 110.433 32.5238C103.175 23.9794 103.543 11.8979 109.147 3.03202C107.539 2.61858 105.885 2.15921 104.232 1.83765C96.0547 9.69293 92.1041 21.2691 97.6166 32.2941C102.716 42.4003 112.225 49.4747 123.755 49.934Z" fill="#CAB08A"/>
<path d="M121.917 82.5955C138.868 83.8359 157.84 80.9418 171.576 71.0193C171.162 68.6765 170.611 66.3797 170.014 64.0828C167.212 66.4715 163.812 68.2631 160.597 69.779C154.854 72.3975 148.653 74.4646 142.359 75.2456C134.137 76.2103 125.776 75.7509 117.599 74.4187C109.331 73.0865 101.292 71.0653 93.8037 67.2065C79.0579 59.5809 68.4923 47.9129 60.8207 33.3048C56.7323 25.5414 52.8736 16.7674 50.7145 7.80957C45.5695 10.1524 40.7002 13.0005 36.1064 16.262C38.9086 23.4283 42.5377 30.3189 46.6261 36.842C54.9867 49.9341 67.7113 61.2806 80.9413 69.2278C93.574 76.8074 107.171 81.4931 121.917 82.5955Z" fill="#CAB08A"/>
<path d="M165.696 121.321C167.258 117.692 168.59 113.971 169.692 110.112C161.378 115.487 151.914 118.932 141.946 120.494C112.225 125.042 80.5279 117.6 54.757 102.67C35.4174 91.3695 18.4206 76.2561 4.6394 58.6162C3.30722 62.4749 2.25066 66.4715 1.46973 70.6059C6.79846 75.9805 12.4028 80.9877 18.099 85.903C43.8239 107.953 75.3829 122.745 109.239 126.052C127.43 127.752 147.688 127.247 165.696 121.321Z" fill="#CAB08A"/>
<path d="M90.2664 160.23C105.977 161.056 121.779 160.092 136.939 156.692C140.292 154.304 143.462 151.639 146.402 148.791C134.734 152.604 122.606 154.671 110.249 154.763C92.793 154.901 75.0152 152.19 58.0644 147.964C41.2054 143.83 26.0001 136.756 10.8867 128.487C12.6783 131.702 14.6536 134.78 16.8126 137.72C39.4597 150.537 64.0822 158.851 90.2664 160.23Z" fill="#CAB08A"/>
<path opacity="0.8" d="M172.495 95.8713C177.685 48.418 143.37 5.69628 95.871 0.505365C48.4178 -4.68555 5.69604 29.6296 0.505121 77.0829C-4.6858 124.582 29.6294 167.258 77.0827 172.449C124.628 177.686 167.304 143.37 172.495 95.8713ZM25.8625 72.9945C30.1347 33.7181 65.4605 5.32879 104.783 9.60096C144.059 13.9191 172.449 49.1989 168.176 88.5213C163.858 127.798 128.532 156.187 89.256 151.915C49.9337 147.643 21.5904 112.317 25.8625 72.9945Z" fill="#A7722B"/>
<g opacity="0.8">
<path opacity="0.8" d="M149.066 146.173C131.427 161.929 107.401 170.474 82.0439 167.717C34.5447 162.526 0.229497 119.805 5.42042 72.3514C7.57947 52.6902 16.1698 35.3259 28.8485 22.05C13.4594 35.7394 2.9398 54.9871 0.505121 77.083C-4.6858 124.582 29.6294 167.258 77.0827 172.449C104.967 175.527 131.151 165.007 149.066 146.173Z" fill="#A7722B"/>
</g>
</g>
<defs>
<clipPath id="clip0_38_8353">
<rect width="173" height="173" fill="white"/>
</clipPath>
</defs>
</svg>
