<svg width="136" height="137" viewBox="0 0 136 137" fill="none" xmlns="http://www.w3.org/2000/svg">
<path d="M68 0C30.4282 0 0 30.4282 0 68C0 105.527 30.4282 136 68 136C105.572 136 136 105.572 136 68C136 30.4282 105.572 0 68 0Z" fill="#2C91CF"/>
<path opacity="0.4" d="M68 0C30.4282 0 0 30.4282 0 68C0 105.527 30.4282 136 68 136C105.572 136 136 105.572 136 68C136 30.4282 105.572 0 68 0ZM74.9176 32.734C76.8617 34.4069 79.6197 33.7739 81.9255 34.5878C85.3617 35.7633 86.7633 40.7367 86.7181 43.992C86.6729 48.1064 84.3218 50.6835 80.8856 52.5824C80.1622 52.9894 79.3936 53.3963 78.625 53.8032C75.641 58.2793 72.3404 62.9814 71.4362 68.1809C71.1197 69.8989 71.0745 72.1144 72.4309 73.4255C73.6516 74.6011 75.234 75.2793 76.5904 76.2287C79.5293 78.3537 78.625 81.4734 78.7606 84.5479C78.8059 85.859 78.7606 89.25 80.9309 88.7979C81.9255 88.5718 82.7846 88.1649 83.734 87.8484C85.633 87.2606 88.0745 86.9894 89.5665 88.6622C92.3697 91.7819 91.8271 97.2074 89.2952 100.327C85.5426 104.984 79.3936 107.742 73.8777 109.596C67.9548 111.585 61.0372 113.077 54.8431 111.676C49.1463 110.364 46.2979 106.386 46.8856 100.553C47.5186 94.8112 50.5931 89.6117 51.5426 83.9149C51.9043 81.7899 51.9043 79.6649 51.3617 77.6303C49.734 75.9122 47.383 72.883 45.0319 72.3404C43.1782 71.8883 41.1888 72.2048 39.3803 71.5266C35.9441 70.2154 35.266 66.734 36.4867 63.4787C37.7527 60.0878 40.2846 58.3697 43.2686 56.4707C46.0718 54.6622 50.7739 51.9947 49.508 47.9707C48.016 43.2686 43.0878 41.2793 39.7872 38.1596C36.984 35.492 35.7181 31.6489 34.6782 27.9867C33.0053 24.7314 30.9707 20.7979 32.2819 17.3617C33.9096 13.0665 38.5665 10.4894 42.5452 8.72606C51.633 4.74734 62.7101 4.15957 72.3856 5.60638C75.6862 6.10372 78.9415 6.69149 82.1516 7.59574C84.9096 8.36436 88.4362 9.35904 90.4255 11.5745C91.7367 13.0213 92.0984 15.2367 90.3351 16.5027C87.984 18.1755 84.6835 18.2207 81.9255 18.6729C80.2979 18.9441 78.3537 19.125 76.9521 20.0293C75.3245 21.1144 74.6011 23.5559 74.1942 25.3644C73.742 27.3989 73.109 31.1516 74.9176 32.734Z" fill="#288BBF"/>
<path d="M30.2021 20.6169C29.9761 19.9388 29.6596 19.2606 29.6596 18.4919C29.6144 16.7287 29.2074 15.0106 28.8457 13.2925C12.0266 25.1382 0.859042 44.4441 0.0452118 66.3723C1.22074 67.8191 2.57713 69.2207 4.6117 69.085C7.36968 68.9042 10.0372 67.7287 12.7952 68.5877C12.9309 68.6329 13.0213 68.7233 13.0213 68.9042C12.9761 69.9441 12.6144 70.984 12.3883 72.0239C12.0718 73.5159 17.2261 75.7313 17.5426 77.9467C17.9495 80.9308 18.4016 83.9148 18.8989 86.8989C19.4415 90.2446 20.0745 93.8616 21.7473 96.8457C22.1995 97.6143 25.6809 99.1967 26.1782 98.6994C27.3537 97.4787 28.7553 96.3936 30.5638 96.3483C34.6782 96.2127 38.883 100.056 41.0532 103.447C43.133 99.5584 49.2819 83.5531 48.7394 82.8749C48.1968 82.242 41.9122 74.6914 37.9335 75.9574C34.6782 76.9973 28.4388 80.343 28.5293 80.117C29.3883 77.5398 30.2473 75.0079 31.1064 72.4308C29.9761 72.2951 27.3537 72.0691 27.3537 71.843C27.3085 68.4068 31.4229 56.1542 34.1356 54.7526C35.8537 53.8483 37.6622 53.0345 39.3351 52.0398C39.6064 51.859 41.7314 50.8191 41.4601 50.367C41.008 49.4627 40.4654 48.6037 39.8777 47.7898C38.4761 45.8457 36.8936 43.9467 35.8989 41.7313C35.5825 41.0079 28.1676 42.3643 28.2128 42.2287C29.0718 39.1542 31.3777 36.3058 31.6037 33.0505C31.7846 30.0664 27.6702 29.6143 26.0426 27.8058C24.1436 25.8164 30.6995 22.0638 30.2021 20.6169Z" fill="#1C7C3E"/>
<path d="M132.428 47.0665C131.343 49.3271 130.348 51.5877 129.354 53.8484C129.263 54.0292 128.992 54.0744 128.856 53.9388C127.319 51.9947 127.636 48.7393 125.737 47.2473C123.838 45.7553 121.396 45.0319 119.181 44.1728C119 44.1276 118.91 43.9468 118.955 43.7659C119.452 41.3697 120.402 39.109 121.487 36.9388C121.939 36.0346 123.34 34.1356 123.024 33.0957C122.662 32.0106 122.346 30.9255 122.074 29.7952C121.803 28.7101 121.532 27.625 121.261 26.5399C117.644 21.9734 113.439 17.9042 108.782 14.4229C109.279 16.0053 109.686 17.5877 109.912 19.2606C109.957 19.5771 109.641 19.8032 109.37 19.5771C108.058 18.5372 106.657 17.633 105.165 16.8191C103.718 16.0053 102.09 15.0558 100.372 14.8298C96.7101 14.3324 98.0665 21.7021 97.6596 23.9175C97.6144 24.0984 88.2101 22.8776 83.508 25.3191C83.734 26.8564 83.9601 28.3484 84.2314 29.8404C84.4122 29.7952 84.5931 29.7952 84.7287 29.75C87.4415 29.4787 89.9734 31.4229 92.0984 32.7792C92.1888 32.8244 89.8378 36.4867 88.2101 38.9282C88.5718 39.5611 88.8883 40.1941 89.2952 40.8271C90.1995 41.3697 91.0585 41.9574 91.9175 42.6356C92.6862 43.2234 93.0479 42.726 93.7713 42.1835C94.4495 41.6409 95.1277 41.1436 95.8963 40.6915C97.9761 39.3803 106.883 42.5452 106.838 44.7606C106.793 46.8404 105.301 48.7393 104.441 50.5026C104.396 50.6383 104.215 50.6835 104.08 50.6383C102.949 50.2766 101.91 49.734 100.824 49.1463C99.6037 49.4627 98.383 49.734 97.1622 50.0957C95.8058 52.4016 94.4042 54.617 92.7766 56.742C92.6862 56.8324 92.5505 56.9229 92.4149 56.8776C90.742 56.3351 87.8484 54.7074 85.1808 53.984C83.508 54.5266 81.8351 55.1596 80.2979 56.0186C78.625 60.7207 77.1782 65.4681 76.1835 70.3058C77.4495 71.4361 78.5346 72.6569 79.6649 73.9229C79.8457 73.9229 80.0266 73.9681 80.2074 74.0133C82.0159 74.4202 84.0505 75.5505 84.8644 77.3138C85.3617 78.3537 85.4069 79.5292 85.4069 80.6596C85.9947 81.2021 86.6277 81.6995 87.2606 82.1968C88.7527 81.2021 90.4255 80.2526 91.9175 80.7952C93.1835 81.2925 94.1782 82.242 95.1276 83.1463C96.5745 84.5479 98.1569 85.859 99.3777 87.4415C101.457 90.0638 100.327 93.5452 99.1064 96.3484C98.2021 98.5186 97.0266 100.689 96.2128 102.904C96.8909 105.029 97.6144 107.154 98.3378 109.234C98.8351 109.641 99.3776 110.048 99.9202 110.455C101.955 109.144 103.989 107.787 105.979 106.431C105.888 104.894 105.888 103.266 106.024 101.819C106.25 99.4229 106.793 97.3431 108.511 95.625C110.771 93.3643 113.529 91.7819 116.332 90.2899C117.011 86.7633 117.327 83.1463 117.779 79.5292C115.066 78.9415 112.309 78.5346 109.641 77.6755C109.415 77.5851 109.37 77.4042 109.46 77.2234C110.997 74.0133 111.54 70.4867 112.715 67.1862C112.761 67.0505 112.851 66.9149 113.032 66.9601C114.434 67.0957 115.79 67.0957 117.191 67.1862C117.598 67.1862 120.628 67.8191 120.718 67.5478C121.803 65.0611 122.436 62.4388 123.476 59.9521C123.521 59.8165 123.793 59.726 123.928 59.8165C126.641 61.7606 128.856 64.1117 131.072 66.5984C131.569 67.1862 133.965 64.2021 135.503 62.1223C135.186 57.0133 134.056 51.9494 132.428 47.0665Z" fill="#1C7C3E"/>
<path d="M37.2553 21.1144C37.2101 21.1596 37.2101 21.25 37.1197 21.2952C39.1091 22.4707 41.008 23.8271 42.9069 25.1383C44.5798 23.4202 50.5479 14.7846 51.1356 14.7846C48.242 14.6942 45.3484 14.1968 42.4548 13.9255C40.6463 16.2314 38.7926 18.5825 37.2553 21.1144Z" fill="#1C7C3E"/>
<path d="M117.508 103.673C115.926 103.808 114.343 103.989 112.715 104.306C112.67 104.306 112.58 104.351 112.535 104.351C112.58 106.069 112.444 107.787 112.354 109.505C113.213 109.505 115.473 109.279 117.644 109.053C117.508 107.245 117.418 105.481 117.508 103.673Z" fill="#1C7C3E"/>
<path d="M30.2021 19.7127C29.9761 19.0345 29.6596 18.3563 29.6596 17.5877C29.6144 15.8244 29.2074 14.1063 28.8457 12.3882C12.0266 24.2791 0.859042 43.5398 0.0452118 65.468C1.22074 66.96 2.57713 68.3164 4.6117 68.1807C7.36968 67.9999 10.0372 66.8244 12.7952 67.6834C12.9309 67.7286 13.0213 67.8642 13.0213 67.9999C12.9761 69.0398 12.6144 70.1249 12.3883 71.1196C12.0718 72.6116 17.2261 74.827 17.5426 77.0424C17.9495 80.0265 18.4016 83.0105 18.8989 85.9946C19.4415 89.3403 20.0745 92.9573 21.7473 95.9414C22.1995 96.71 25.6809 98.2924 26.1782 97.7951C27.3537 96.5744 28.7553 95.4893 30.5638 95.444C34.6782 95.3084 38.883 99.1515 41.0532 102.542C43.133 98.6542 49.2819 82.6488 48.7394 82.0158C48.1968 81.3829 41.9122 73.7871 37.9335 75.0983C34.6782 76.1382 28.4388 79.4839 28.5293 79.2579C29.3883 76.6807 30.2473 74.1488 31.1064 71.5717C29.9761 71.4361 27.3537 71.21 27.3537 70.9839C27.3085 67.5478 31.4229 55.2951 34.1356 53.8935C35.8537 52.9892 37.6622 52.1754 39.3351 51.1807C39.6064 50.9999 41.7314 49.96 41.4601 49.5079C41.008 48.6036 40.4654 47.7898 39.8777 46.9307C38.4761 44.9866 36.8936 43.0877 35.8989 40.8722C35.5825 40.1036 28.1676 41.5052 28.2128 41.3244C29.0718 38.2499 31.3777 35.4015 31.6037 32.1462C31.7846 29.1621 27.6702 28.71 26.0426 26.9015C24.1436 24.9121 30.6995 21.2047 30.2021 19.7127Z" fill="#B4CE34"/>
<path d="M132.428 46.2073C131.343 48.4228 130.348 50.6834 129.354 52.9893C129.263 53.1701 128.992 53.2153 128.856 53.0345C127.319 51.0903 127.636 47.835 125.737 46.343C123.838 44.851 121.396 44.1276 119.181 43.3137C119 43.2685 118.91 43.0877 118.955 42.9068C119.452 40.5105 120.402 38.2499 121.487 36.0797C121.939 35.1754 123.34 33.3217 123.024 32.2366C122.662 31.1515 122.346 30.0664 122.074 28.9361C121.803 27.851 121.532 26.7658 121.261 25.6807C117.644 21.1143 113.439 17.0451 108.782 13.5637C109.279 15.1462 109.686 16.7286 109.912 18.4015C109.957 18.718 109.641 18.944 109.37 18.718C108.058 17.6781 106.657 16.7738 105.165 15.96C103.718 15.1462 102.09 14.1967 100.372 13.9706C96.7101 13.4733 98.0665 20.8882 97.6596 23.0584C97.6144 23.2393 88.2101 22.0637 83.508 24.46C83.734 25.952 83.9601 27.4893 84.2314 28.9813C84.4122 28.9361 84.5931 28.9361 84.7287 28.8909C87.4415 28.6196 89.9734 30.5637 92.0984 31.9201C92.1888 31.9653 89.8378 35.6728 88.2101 38.069C88.5718 38.702 88.8883 39.335 89.2952 40.0132C90.1995 40.5557 91.0585 41.1435 91.9175 41.8217C92.6862 42.4095 93.0479 41.9121 93.7713 41.3696C94.4495 40.8722 95.1277 40.3297 95.8963 39.8776C97.9761 38.5664 106.883 41.7765 106.838 43.9467C106.793 46.0265 105.301 47.9254 104.441 49.6887C104.396 49.8244 104.215 49.8696 104.08 49.8244C102.949 49.4627 101.91 48.9201 100.824 48.3323C99.6037 48.6488 98.383 48.9201 97.1622 49.2818C95.8058 51.5877 94.4042 53.8031 92.7766 55.9281C92.6862 56.0637 92.5505 56.1089 92.4149 56.0637C90.742 55.5212 87.8484 53.8935 85.1808 53.1701C83.508 53.7127 81.8351 54.3456 80.2979 55.2047C78.625 59.9068 77.1782 64.6541 76.1835 69.4919C77.4495 70.6222 78.5346 71.843 79.6649 73.1542C79.8457 73.1542 80.0266 73.1994 80.2074 73.2446C82.0159 73.6515 84.0505 74.7818 84.8644 76.5451C85.3617 77.585 85.4069 78.7605 85.4069 79.8909C85.9947 80.4334 86.6277 80.9308 87.2606 81.4281C88.7527 80.4334 90.4255 79.4839 91.9175 80.0717C93.1835 80.5238 94.1782 81.4733 95.1276 82.4228C96.5745 83.8244 98.1569 85.1355 99.3777 86.718C101.457 89.3403 100.327 92.8217 99.1064 95.6249C98.2021 97.7951 97.0266 99.9653 96.2128 102.181C96.8909 104.306 97.6144 106.431 98.3378 108.511C98.8351 108.917 99.3776 109.324 99.9202 109.731C101.955 108.42 103.989 107.064 105.979 105.662C105.888 104.125 105.888 102.542 106.024 101.05C106.25 98.6542 106.793 96.5744 108.511 94.8563C110.771 92.5956 113.529 91.0132 116.332 89.5212C117.011 85.9946 117.327 82.3776 117.779 78.7605C115.066 78.1728 112.309 77.7659 109.641 76.9068C109.415 76.8616 109.37 76.6355 109.46 76.4547C110.997 73.2446 111.54 69.718 112.715 66.3722C112.761 66.2818 112.851 66.1462 113.032 66.1462C114.434 66.2818 115.79 66.2818 117.191 66.3722C117.598 66.4174 120.628 67.0052 120.718 66.7339C121.803 64.2472 122.436 61.6249 123.476 59.1382C123.521 58.9573 123.793 58.9121 123.928 59.0026C126.641 60.9467 128.856 63.2978 131.072 65.7845C131.569 66.327 133.965 63.3882 135.503 61.3084C135.186 56.1089 134.056 51.0451 132.428 46.2073Z" fill="#7BBA42"/>
<path d="M37.2553 20.2101C37.2101 20.2553 37.2101 20.3457 37.1197 20.3909C39.1091 21.5665 41.008 22.9228 42.9069 24.234C44.5798 22.5159 50.5479 13.8803 51.1356 13.8803C48.242 13.7899 45.3484 13.2925 42.4548 13.0212C40.6463 15.3723 38.7926 17.6782 37.2553 20.2101Z" fill="#48AB48"/>
<path d="M117.508 102.769C115.926 102.904 114.343 103.085 112.715 103.402C112.67 103.402 112.58 103.447 112.535 103.447C112.58 105.12 112.444 106.838 112.354 108.601C113.213 108.601 115.473 108.375 117.644 108.149C117.508 106.386 117.418 104.577 117.508 102.769Z" fill="#48AB48"/>
<path opacity="0.7" d="M68 0C30.4282 0 0 30.4282 0 68C0 105.527 30.4282 136 68 136C105.572 136 136 105.572 136 68C136 30.4282 105.572 0 68 0ZM62.6197 116.559C31.5585 116.559 6.375 91.375 6.375 60.2686C6.375 29.2074 31.5585 4.02394 62.6197 4.02394C93.7261 4.02394 118.91 29.2074 118.91 60.2686C118.91 91.375 93.7261 116.559 62.6197 116.559Z" fill="#288BBF"/>
<g opacity="0.7">
<path d="M114.027 17.9946C125.194 30.1116 131.976 46.2526 131.976 64.0212C131.976 101.548 101.548 132.021 63.9761 132.021C46.2074 132.021 30.0213 125.194 17.9495 114.072C30.383 127.545 48.1968 136.045 67.9548 136.045C105.527 136.045 135.955 105.617 135.955 68.0452C136 48.1968 127.545 30.4281 114.027 17.9946Z" fill="#288BBF"/>
</g>
</svg>
