<svg width="256" height="223" viewBox="0 0 256 223" fill="none" xmlns="http://www.w3.org/2000/svg">
<g clip-path="url(#clip0_31_2077)">
<path d="M59.783 16.9578C12.639 48.0875 -0.336402 111.548 30.8526 158.675C61.9936 205.802 125.477 218.724 172.621 187.595C219.765 156.465 232.692 93.0046 201.551 45.8777C170.41 -1.24919 106.927 -14.1719 59.783 16.9578Z" fill="#6AB445"/>
<path d="M58.4854 133.118C63.8678 120.867 63.0989 106.84 54.8331 96.031C48.009 87.1436 36.8117 80.5142 25.3261 81.2348C21.7218 81.475 18.502 82.3877 15.6185 83.8289C11.5818 105.831 14.7055 129.178 25.7586 150.076C39.0704 151.613 52.6225 146.425 58.4854 133.118Z" fill="#D1D927"/>
<path d="M101.064 176.065C106.687 158.627 107.359 138.45 104.62 120.387C102.025 103.093 96.018 87.1921 85.878 72.9723C74.2001 56.6389 57.236 41.5064 37.8209 36.5103C31.8138 43.7162 26.8639 51.5947 23.0674 60.0016C35.7545 56.7349 49.0663 62.2595 58.5335 70.7145C70.4997 81.3793 76.9874 96.4637 78.1888 112.317C79.4864 129.275 75.786 146.233 67.7605 161.221C63.9159 168.379 59.1102 176.402 52.9589 182.743C64.1081 191.486 76.8913 197.683 90.2992 201.238C94.7685 193.216 98.2767 184.713 101.064 176.065Z" fill="#D1D927"/>
<path d="M167.335 164.968C168.008 124.951 157.579 85.0301 134.992 51.7386C122.882 33.8678 107.071 15.8049 88.0405 3.89111C78.2369 6.72545 68.7216 11.001 59.783 16.9099C59.5427 17.054 59.3024 17.2461 59.0621 17.3903C65.7901 20.2726 72.2778 23.8756 78.285 28.007C96.3544 40.3532 112.069 57.119 122.69 76.2868C140.038 107.657 143.643 145.464 136.53 180.245C134.944 187.931 133.022 195.809 130.619 203.448C142.778 201.718 154.744 197.779 165.989 191.534C166.854 182.743 167.191 173.855 167.335 164.968Z" fill="#D1D927"/>
<path d="M180.502 43.1396C169.353 28.1992 156.522 14.604 142.009 3.36273C132.445 0.864669 122.497 -0.240243 112.55 0.0960344C120.623 4.99608 128.216 10.6648 135.185 17.006C160.799 40.2572 177.859 70.9065 188.672 103.477C194.631 121.396 199.341 140.804 200.542 160.164C207.558 149.98 212.556 138.69 215.488 126.921C210.009 96.7518 199.004 68.0241 180.502 43.1396Z" fill="#D1D927"/>
<path d="M54.7851 96.031C47.961 87.1436 36.7637 80.5142 25.278 81.2348C21.6737 81.475 18.4539 82.3877 15.5705 83.8289C15.0899 86.5191 14.7055 89.2093 14.4171 91.8996C21.1932 89.7858 29.2187 91.3711 35.6103 95.1182C44.7411 100.499 50.8924 110.395 48.9702 121.252C46.6634 134.271 35.37 143.062 23.1154 144.695C23.9324 146.473 24.7974 148.298 25.7586 150.076C39.0704 151.565 52.6225 146.425 58.4374 133.118C63.8678 120.867 63.0989 106.84 54.7851 96.031Z" fill="#C8DB51"/>
<path d="M85.878 73.0197C74.2001 56.6862 57.236 41.5537 37.8209 36.5576C36.0428 38.6714 34.3127 40.9292 32.7269 43.2351C37.0039 44.0038 41.233 45.6852 45.0295 47.5107C51.7094 50.7293 58.3413 54.8127 63.7717 59.9529C70.8842 66.7265 76.7471 74.6531 81.697 83.108C86.743 91.6591 90.972 100.498 93.0865 110.202C97.2675 129.37 94.6244 147.817 87.1755 165.784C83.1868 175.344 78.1408 185.529 71.605 194.224C77.6122 197.106 83.9076 199.46 90.3473 201.141C94.7685 193.167 98.3248 184.664 101.064 176.017C106.687 158.578 107.359 138.402 104.62 120.339C102.025 103.141 96.0661 87.2394 85.878 73.0197Z" fill="#C8DB51"/>
<path d="M88.0886 3.93896C83.6193 5.23604 79.198 6.82134 74.8249 8.74293C86.0221 12.2498 96.3064 18.2548 105.197 26.1333C131.821 49.7207 148.977 84.2132 154.84 118.946C159.213 145.031 158.348 171.934 152.677 197.779C157.195 196.049 161.664 193.984 165.989 191.582C166.806 182.742 167.191 173.855 167.335 164.968C168.008 124.951 157.579 85.0299 134.992 51.7384C122.882 33.8677 107.071 15.8048 88.0886 3.93896Z" fill="#C8DB51"/>
<path d="M180.502 43.1392C169.353 28.1989 156.522 14.6037 142.009 3.36239C137.299 2.1614 132.493 1.24865 127.64 0.720215C139.942 8.40656 150.995 17.9184 160.414 29.1116C173.726 44.9167 184.683 63.1237 193.67 81.667C202.609 100.162 207.655 119.282 211.595 139.315C213.133 135.279 214.479 131.148 215.536 126.968C210.009 96.7514 199.004 68.0237 180.502 43.1392Z" fill="#C8DB51"/>
<path opacity="0.5" d="M59.783 16.9578C12.639 48.0875 -0.336402 111.548 30.8526 158.675C61.9936 205.802 125.477 218.724 172.621 187.595C219.765 156.465 232.692 93.0046 201.551 45.8777C170.41 -1.24919 106.927 -14.1719 59.783 16.9578ZM149.746 167.658C110.772 193.407 58.2452 182.743 32.4866 143.734C6.72799 104.774 17.4447 52.267 56.419 26.5177C95.4413 0.768475 147.92 11.4813 173.726 50.4415C199.485 89.4016 188.72 141.861 149.746 167.658Z" fill="#5FA144"/>
<path opacity="0.5" d="M132.541 1.34521C156.618 7.30213 178.58 21.9062 193.334 44.1966C224.475 91.3235 211.547 154.784 164.403 185.914C142.105 200.662 116.154 205.514 91.6929 201.526C118.461 208.156 147.824 203.976 172.669 187.595C219.813 156.465 232.74 93.0048 201.599 45.878C185.164 21.0895 159.79 5.76486 132.541 1.34521Z" fill="#5FA144"/>
<path d="M253.982 15.9015C246.965 7.2544 222.745 14.1241 190.594 31.8507C192.949 34.3007 195.064 36.8949 197.034 39.6812C206.405 36.7988 213.133 36.7988 215.968 40.2576C224.955 51.3548 191.652 93.3414 141.528 134.031C91.4045 174.721 43.4916 198.74 34.4569 187.691C31.5254 184.088 33.1113 177.123 38.3015 168.091C36.1389 165.641 34.0244 163.191 32.1982 160.501C8.21776 188.364 -3.41205 210.654 3.60428 219.301C16.0511 234.578 82.1776 201.431 151.284 145.32C220.438 89.1139 266.428 31.2262 253.982 15.9015Z" fill="white"/>
<path d="M252.396 13.4994C245.331 4.8042 220.918 11.7699 188.432 29.6887C190.931 32.0427 193.189 34.5888 195.256 37.279C204.723 34.3486 211.499 34.3005 214.335 37.8074C223.369 48.9046 190.018 90.8912 139.942 131.581C89.8667 172.366 41.9058 196.338 32.9191 185.289C30.0357 181.734 31.5254 174.913 36.5714 166.025C34.4089 163.527 32.3905 160.933 30.6123 158.099C6.67993 185.962 -4.99794 208.252 2.0184 216.947C14.4652 232.224 80.5917 199.125 149.698 142.918C218.852 86.7598 264.842 28.824 252.396 13.4994Z" fill="#1E91AD"/>
<path opacity="0.5" d="M242.688 20.3691C234.855 10.9053 211.355 19.7446 189.777 30.9859C191.171 32.379 192.469 33.8202 193.718 35.3575C218.708 22.5309 234.47 19.3603 238.267 24.0201C239.132 25.029 239.42 26.6143 239.228 28.728C237.546 45.0615 204.291 86.904 143.979 135.328C127.88 148.251 111.733 160.068 96.0661 170.445C49.691 201.094 19.8476 210.414 14.4171 203.784C13.5521 202.776 13.2637 201.19 13.456 199.077C14.2249 191.775 21.3373 179.284 34.4089 163.383C33.1594 161.846 32.006 160.261 30.9968 158.627C17.1564 175.249 8.74639 189.276 7.78524 198.452C7.40079 202.103 8.1697 205.13 9.99587 207.387C23.2116 223.481 81.649 186.826 99.2378 175.201C115.049 164.728 131.34 152.814 147.583 139.796C202.753 95.4551 242.784 50.0576 244.899 29.3045C245.283 25.6054 244.514 22.627 242.688 20.3691Z" fill="#F0F4D3"/>
</g>
<defs>
<clipPath id="clip0_31_2077">
<rect width="256" height="223" fill="white"/>
</clipPath>
</defs>
</svg>
