<svg width="190" height="190" viewBox="0 0 190 190" fill="none" xmlns="http://www.w3.org/2000/svg">
<g clip-path="url(#clip0_38_5754)">
<path d="M94.9 0C42.5 0 0 42.5 0 94.9C0 147.3 42.5 189.8 94.9 189.8C147.3 189.8 189.8 147.3 189.8 94.9C189.7 42.5 147.3 0 94.9 0Z" fill="#6768AE"/>
<path d="M94.9 0C42.5 0 0 42.5 0 94.9C0 147.3 42.5 189.8 94.9 189.8C147.3 189.8 189.8 147.3 189.8 94.9C189.7 42.5 147.3 0 94.9 0Z" fill="#F2F8F1"/>
<path d="M35.4999 42C44.3999 40.1 54.0999 37.4 60.9999 31.1C67.4999 25.3 68.5999 17.7 70.1999 9.59995C70.6999 7.19995 71.2999 4.89995 72.0999 2.69995C47.1999 8.89995 26.1999 24.8 13.3999 46.2C20.6999 44.5 28.1999 43.6 35.4999 42Z" fill="#165D73"/>
<path d="M28.5 95.8001C34.6 95.8001 40.5 96.0001 46.5 94.4001C54.2 92.4001 61.6 88.7001 67.7 83.6001C73.8 78.6001 79 72.4001 81 64.6001C82.8 57.5001 82.5 50.0001 82.6 42.7001C82.7 32.5001 83 22.1001 85.4 12.2001C86.4 8.1001 87.8 3.9001 89.9 0.100098C88.6 0.200098 87.3 0.200098 85.9 0.400098C83 4.1001 80.1 7.8001 78.2 12.1001C74.5 20.4001 74.1 30.2001 73 39.1001C72.1 46.4001 71.9 54.5001 68.3 61.1001C65.6 66.1001 61.5 70.2001 56.7 73.2001C50.6 77.0001 43.7 79.4001 36.7 80.8001C28.9 82.3001 20.9 83.0001 13.3 85.4001C8.8 86.8001 4.3 88.5001 0.1 90.7001C0 92.1001 0 93.5001 0 94.9001C0 97.4001 0.1 99.8001 0.3 102.3C7.2 95.8001 20.1 95.8001 28.5 95.8001Z" fill="#165D73"/>
<path d="M125.1 167.3C125.3 164.8 124.9 162.7 124.2 160.3C123.8 159.1 122 159.8 121 160.1C117.3 161.3 114.2 164 111 166.2C103.6 171.2 94.7 173.8 87.1 178.6C83.1 181.1 78.8 184 75.5 187.6C81.8 188.9 88.2 189.6 94.9 189.6C102.8 189.6 110.4 188.6 117.7 186.8C122 181.3 124.5 174.6 125.1 167.3Z" fill="#165D73"/>
<path d="M149 138.4C151 131.3 153.1 124.2 154.1 116.9C155.2 108.7 154.6 100.7 153.4 92.6C152.2 84.8 150.6 77 150.1 69.2C149.7 61.2 150.4 53.1001 151.4 45.2001C152.4 37.3001 153.8 29.3 154.6 21.3C151 18.4 147.2 15.7 143.2 13.3C142.9 14.6 142.5 15.8 142.3 17.1C142 19.6 141.6 22.1 141.2 24.3C141.2 24.5 141.1 24.6 141.1 24.8C140.7 28.3 140.4 31.8 140.1 35.3C139.4 42.9 137.9 50.1001 135.9 57.4001C131.5 73.2001 126.7 89.1 118.9 103.6C112.7 115.2 104.8 126.8 94.1 134.6C88.6 138.6 82.8001 141.1 76.3001 142.7C69.2001 144.4 62.3 146.5 56.6 151.3C51.4 155.8 47.4 161.6 44.1 167.6C43.1 169.4 42.2 171.2 41.3 173.1C47.7 177.5 54.6001 181.1 61.9001 183.8C63.1001 182.7 64.2001 181.5 65.4001 180.4C68.2001 177.7 71.2 175.5 74.7 173.8C83 169.8 92.1001 167.4 100.3 163.1C106.9 159.7 113.1 155.1 117.9 149.4C120.2 146.7 122.8 143.5 124.1 140.1C124.8 138.2 125.5 136.2 126.2 134.3C127.7 130.4 129.2 125.3 132.6 122.6C134.3 121.2 136.9 121.9 137.5 124.1C138.4 127.5 137.1 131.5 136.2 134.7C135 138.8 133.4 142.8 131.8 146.8C129.5 152.6 128.2 158.8 128.4 165C128.6 170.9 130.9 176.3 132.1 181.9C136.6 180 140.9 177.8 144.9 175.2C142.6 163 145.6 150.5 149 138.4Z" fill="#165D73"/>
<path d="M182.1 81.7001C176.4 81.1001 176.6 73.8001 176.1 69.7001C175.1 61.5001 172.5 53.6001 171.4 45.4001C171 42.8001 170.8 40.3001 170.6 37.7001C166.9 32.8001 162.7 28.2001 158.1 24.1001C156.8 28.3001 156.1 32.7001 155.7 37.1001C155.1 44.5001 154.9 52.1001 156.2 59.5001C157.5 66.5001 159.5 73.4001 160.4 80.5001C161 85.1001 160.7 89.5001 160.5 94.1001C160.3 98.1001 159.8 103.1 161.8 106.8C164.7 112.2 171.7 109.4 175 105.8C179.1 101.2 181.4 95.4001 184.7 90.3001C186 88.3001 187.4 86.4001 189.3 84.9001C189.1 83.2001 188.9 81.5001 188.6 79.8001C186.6 81.2001 184.4 82.0001 182.1 81.7001Z" fill="#165D73"/>
<path d="M164.8 128.1C160.9 136 158.3 144.4 157.5 153.2C157.1 157.6 156.9 162 157.2 166.4C177.1 149 189.7 123.4 189.7 94.8999C189.7 93.9999 189.7 93.1999 189.6 92.3999C179.8 102.9 171.2 115.1 164.8 128.1Z" fill="#165D73"/>
<path d="M47.9001 155.7C50.1001 147.7 50.6001 138.8 55.7001 132C63.2001 122 75.5 117.2 86.2 111.7C92 108.7 97.7 105.4 102.2 100.6C107.2 95.4 111.1 89.3 114.5 83.1C117.9 76.9 120.9 70.5 124.2 64.3C127.9 57.1 132.4 50.4 135.2 42.7C137.3 37 138.7 31 139.8 25C140.1 22.3 140.5 19.7 141 17C141.2 15.4 141.2 13.7 141.1 12.2C137 9.9 132.7 7.9 128.3 6.2V6.3C127.4 11.2 125.9 16 124.4 20.8C123.5 23.7 122.6 26.6 121.4 29.4C120.6 31.2 119.7 33.5 118 34.7C113.5 37.7 111.4 25.6 110.8 23.4C108.8 16.2 106.9 8.4 107.7 0.9C103.9 0.4 100.1 0.1 96.2 0C92.1 6.6 90.5 14.3 90.4 22.2C90.3 29.2 90.9 36.5 91.9 43.5C93 50.9 95.4 59.1 93.6 66.5C89.7 82.3 77.3 92.5 65.2 102.1C59.4 106.7 55.1001 113.7 48.2001 116.9C41.6001 119.9 34.2 119.8 27.1 120.3C22.9 120.5 18.6 121 14.7 122.5C11.5 123.7 8.60005 125.5 5.80005 127.4C12.5 145.7 24.6 161.3 40.1 172.4C43 166.9 46.3001 161.7 47.9001 155.7Z" fill="#165D73"/>
<path d="M37 36.6001C45.9 35.3001 56.9 33.6001 62.8 25.9001C67.6 19.8001 66.7 11.7001 67.1 4.1001C47.1 10.2001 29.8 22.8001 17.8 39.5001C24.3 38.1001 31.1 37.5001 37 36.6001Z" fill="#4067B0"/>
<path d="M12.2 90.4C17.7 89.2 23.2 88.8 28.8 88C34.5 87.2 40.2 85.9 45.7 84.2C56.7 81 65.8 75.3 71 64.8C74.1 58.5 76 51.8001 77 44.9001C77.9 38.3001 78 31.7 78.7 25C79.3 19.2 80.2 13.4 82.5 8.10005C83.7 5.30005 85.2 2.70005 87 0.300049C84.9 0.500049 82.8 0.700049 80.7 1.00005C79.2 3.70005 77.9 6.50005 76.6 9.30005C72 19.5 68 29.7 59.5 37.1C44.1 50.4 22.8 53.3001 5.6 62.9001C2 72.9001 0 83.6 0 94.9C0 95 0 95.1 0 95.2C3.6 92.7 7.9 91.3 12.2 90.4Z" fill="#165D73"/>
<path d="M146.8 135.4C149.5 127.6 152.1 119.7 152.2 111.3C152.2 104.6 150.9 98.1 149.5 91.6C146.4 77 145.4 62.4 145.7 47.5C145.9 37 146.5 26.5 147.7 16.1C146.3 15.1 144.8 14.2 143.3 13.3C140.4 35.2 137.6 57.2 131.4 78.4C127 93.5 121 108.1 112.6 121.5C108.9 127.3 105 133.2 99.5 137.4C95.6 140.4 91.2 142.6 86.4 144C74.9 147.4 61.6999 148.4 53.7999 158.5C49.8999 163.6 47.3 169.4 44.2 175C49.2 178.2 54.4 180.9 60 183.1C63.1 179.2 67 175.8 71.4 173C79.8 167.7 89.0999 164.2 97.6999 159.4C102.7 156.6 107.3 153.4 111 148.9C114.6 144.6 117.5 139.7 120.1 134.7C124.9 125.3 128.9 115.4 135.5 107C135.7 106.7 136.1 106.8 136.3 107C140.9 110.7 141.8 116.8 141.6 122.3C141.2 129.5 139.4 136.6 137.5 143.5C135.7 150.1 133.7 156.7 133.3 163.6C132.9 169.5 133.6 175.4 134.3 181.2C137.4 179.8 140.5 178.2 143.4 176.5C141.6 170.5 140.7 164.4 141.3 158C141.9 150.2 144.3 142.8 146.8 135.4Z" fill="#165D73"/>
<path d="M119.7 163.1C107.2 170.9 92.8999 177.9 82.8999 188.9C86.7999 189.4 90.7999 189.7 94.8999 189.7C102.2 189.7 109.3 188.8 116.2 187.3C119.3 179.3 122.9 171.1 119.7 163.1Z" fill="#4067B0"/>
<path d="M175.2 85.4001C172.9 82.8001 173 77.7001 172.7 74.4001C172.1 68.6001 170.5 63.1001 169.3 57.4001C167.4 49.0001 166.3 40.7001 166.2 32.4001C163.9 29.8001 161.6 27.4001 159.1 25.1001C157.4 33.9001 156.8 42.9001 158.1 51.6001C160.2 65.8001 165.9 79.6001 165.7 94.1001C165.7 95.9001 164.7 104.8 167.4 105.2C169.6 105.6 172.1 102.8 173.4 101.5C176 98.9001 178.5 96.2001 180.6 93.2001C183.1 89.6001 185.3 85.8001 187.5 82.1001C183.7 85.5001 178.4 89.1001 175.2 85.4001Z" fill="#4067B0"/>
<path d="M186.5 98.1001C182.1 102.5 178.9 107.8 176.2 113.3C171 123.8 165.1 134.3 161.4 145.4C159.2 151.9 158.6 158.4 158.7 165.1C177.7 147.8 189.7 122.8 189.7 95.1001C188.6 96.0001 187.5 97.0001 186.5 98.1001Z" fill="#165D73"/>
<path d="M131.9 7.5001C130.6 13.7001 129.3 20.0001 127.5 26.1001C125 34.5001 121.5 43.6001 114.4 49.2001C114.1 49.4001 113.6 49.4001 113.5 49.0001C110.3 32.9001 107.1 17.0001 106.7 0.800098C104 0.500098 101.2 0.200098 98.3999 0.100098C93.8999 9.8001 93.2999 20.3001 94.8999 31.2001C96.4999 42.2001 99.4999 53.4001 98.1999 64.5001C97.4999 70.4001 95.8999 76.5001 92.1999 81.2001C88.1999 86.3001 82.8999 90.2001 77.7999 94.1001C72.5999 98.1001 67.8999 102.2 63.6999 107.2C59.5999 112.1 55.5999 117.5 50.1999 121C44.5999 124.6 38.3999 124.8 31.8999 124.1C24.2999 123.2 17.1999 123.4 10.8999 128.5C9.6999 129.4 8.4999 130.5 7.3999 131.5C13.1999 145.3 22.0999 157.4 33.2999 166.9C36.5999 164.2 39.2999 161.1 41.1999 157.3C43.4999 152.7 44.7999 147.7 46.3999 142.8C48.3999 136.1 51.1999 129.8 56.0999 124.7C60.6999 119.9 66.3999 116.4 71.7999 112.6C78.2999 108 84.3999 102.6 90.5999 97.5001C96.7999 92.3001 103.5 86.8001 108.1 80.1001C117.5 66.5001 127.2 52.7001 132.1 36.8001C134.8 28.4001 136.6 19.6001 139.5 11.2001C137 9.8001 134.4 8.6001 131.9 7.5001Z" fill="#4067B0"/>
<path opacity="0.5" d="M94.9 0C42.5 0 0 42.5 0 94.9C0 147.3 42.5 189.8 94.9 189.8C147.3 189.8 189.8 147.3 189.8 94.9C189.7 42.5 147.3 0 94.9 0ZM86.2 160.3C43.5 160.3 8.8 125.7 8.8 82.9C8.8 40.1 43.5 5.6 86.2 5.6C128.9 5.6 163.6 40.2 163.6 83C163.6 125.8 127.2 160.3 86.2 160.3Z" fill="#112C4F"/>
<path opacity="0.5" d="M159.2 25.1001C174.8 42.0001 184.3 64.6001 184.3 89.4001C184.3 141.8 141.8 184.3 89.4001 184.3C64.6001 184.3 42.0001 174.8 25.1001 159.2C42.4001 178 67.3001 189.8 94.9001 189.8C147.3 189.8 189.8 147.3 189.8 94.9001C189.7 67.3001 178 42.5001 159.2 25.1001Z" fill="#112C4F"/>
</g>
<defs>
<clipPath id="clip0_38_5754">
<rect width="189.7" height="189.7" fill="white"/>
</clipPath>
</defs>
</svg>
