<svg width="253" height="135" viewBox="0 0 253 135" fill="none" xmlns="http://www.w3.org/2000/svg">
<path d="M141.977 92.5859C134.164 92.5859 128.396 90.5547 124.672 86.4922C120.974 82.4297 119.125 76.1146 119.125 67.5469C119.125 51.0625 126.859 42.8203 142.328 42.8203C144.438 42.8203 146.625 43.0286 148.891 43.4453C151.156 43.862 153.044 44.4479 154.555 45.2031C156.091 45.9323 156.859 46.7526 156.859 47.6641C156.859 48.3151 156.599 49.1745 156.078 50.2422C155.557 51.2839 154.932 52.2083 154.203 53.0156C153.5 53.8229 152.875 54.2266 152.328 54.2266C152.198 54.2266 151.846 54.0964 151.273 53.8359C150.023 53.3151 148.708 52.8854 147.328 52.5469C145.974 52.1823 144.242 52 142.133 52C138.044 52 135.01 53.3021 133.031 55.9062C131.078 58.4844 130.102 62.3906 130.102 67.625C130.102 72.8594 131.091 76.8047 133.07 79.4609C135.049 82.1172 138.018 83.4453 141.977 83.4453C144.034 83.4453 145.818 83.237 147.328 82.8203C148.865 82.4036 150.362 81.8698 151.82 81.2188C151.898 81.1927 152.133 81.1016 152.523 80.9453C152.914 80.763 153.201 80.6719 153.383 80.6719C154.06 80.6719 154.711 81.0755 155.336 81.8828C155.961 82.6641 156.469 83.5625 156.859 84.5781C157.25 85.5677 157.445 86.2839 157.445 86.7266C157.445 88.0026 156.586 89.0833 154.867 89.9688C153.174 90.8542 151.117 91.5182 148.695 91.9609C146.299 92.3776 144.06 92.5859 141.977 92.5859ZM176.898 92.5859C173.617 92.5859 170.727 92.2604 168.227 91.6094C165.753 90.9323 163.852 90.112 162.523 89.1484C161.221 88.1849 160.57 87.2734 160.57 86.4141C160.57 85.737 160.818 84.9036 161.312 83.9141C161.833 82.9245 162.445 82.0781 163.148 81.375C163.852 80.6458 164.438 80.2812 164.906 80.2812C165.193 80.2812 165.805 80.5286 166.742 81.0234C168.148 81.7526 169.477 82.3385 170.727 82.7812C172.003 83.224 173.461 83.4453 175.102 83.4453C176.924 83.4453 178.461 83.0938 179.711 82.3906C180.987 81.6615 181.625 80.3984 181.625 78.6016C181.625 77.5599 181.299 76.6615 180.648 75.9062C179.997 75.151 179.164 74.513 178.148 73.9922C177.133 73.4714 175.753 72.8594 174.008 72.1562L170.922 70.8281C169.047 69.9167 167.432 68.9141 166.078 67.8203C164.75 66.7266 163.656 65.2812 162.797 63.4844C161.964 61.6875 161.547 59.487 161.547 56.8828C161.547 53.7057 162.328 51.0625 163.891 48.9531C165.453 46.8438 167.484 45.2943 169.984 44.3047C172.484 43.3151 175.167 42.8203 178.031 42.8203C180.375 42.8203 182.497 43.0677 184.398 43.5625C186.299 44.0312 187.784 44.6432 188.852 45.3984C189.945 46.1536 190.492 46.9089 190.492 47.6641C190.492 48.2891 190.284 49.0964 189.867 50.0859C189.477 51.0495 188.982 51.8958 188.383 52.625C187.784 53.3542 187.224 53.7188 186.703 53.7188C186.469 53.7188 186.052 53.5885 185.453 53.3281C184.49 52.9375 183.513 52.625 182.523 52.3906C181.56 52.1302 180.375 52 178.969 52C176.547 52 174.867 52.3906 173.93 53.1719C172.992 53.9271 172.523 54.8255 172.523 55.8672C172.523 57.0651 172.836 58.0677 173.461 58.875C174.112 59.6823 174.919 60.3464 175.883 60.8672C176.872 61.388 178.24 61.987 179.984 62.6641C182.615 63.7839 184.763 64.8516 186.43 65.8672C188.096 66.8568 189.529 68.2891 190.727 70.1641C191.951 72.0391 192.562 74.4349 192.562 77.3516C192.562 80.9193 191.807 83.849 190.297 86.1406C188.812 88.4062 186.885 90.0469 184.516 91.0625C182.172 92.0781 179.633 92.5859 176.898 92.5859ZM202.797 92.1172C200.01 92.1172 198.617 91.388 198.617 89.9297V45.4766C198.617 44.7214 198.956 44.1615 199.633 43.7969C200.31 43.4062 201.365 43.2109 202.797 43.2109H206.469C208.682 43.2109 210.128 43.849 210.805 45.125L222.484 65.8672L223.07 66.8828L223.656 65.6719L235.414 45.125C236.117 43.849 237.576 43.2109 239.789 43.2109H243.422C246.208 43.2109 247.602 43.9661 247.602 45.4766V89.9297C247.602 91.388 246.208 92.1172 243.422 92.1172H241.391C238.604 92.1172 237.211 91.388 237.211 89.9297V61.1406L236.938 61.0625L226.859 79.0703C226.26 79.9557 225.336 80.3984 224.086 80.3984H222.094C221.443 80.3984 220.896 80.2943 220.453 80.0859C220.01 79.8516 219.633 79.513 219.32 79.0703L209.203 61.0625L208.93 61.1406V89.9297C208.93 91.388 207.549 92.1172 204.789 92.1172H202.797Z" fill="white"/>
<path fill-rule="evenodd" clip-rule="evenodd" d="M49 18C49.514 18 50.0261 18.0079 50.5362 18.0236L0.0236228 68.5362C0.00791267 68.0261 0 67.514 0 67C0 39.938 21.938 18 49 18ZM12.2024 99.3574C7.77335 94.3245 4.36051 88.3756 2.28472 81.8314L63.8314 20.2847C70.3756 22.3605 76.3245 25.7733 81.3574 30.2024L12.2024 99.3574ZM49 116C76.062 116 98 94.062 98 67C98 66.0586 97.9735 65.1234 97.9211 64.1951L46.1951 115.921C47.1234 115.973 48.0586 116 49 116ZM33.1724 113.387C28.5506 111.811 24.2398 109.563 20.356 106.76L88.7602 38.356C91.5631 42.2397 93.8109 46.5506 95.3874 51.1724L33.1724 113.387Z" fill="white"/>
</svg>
