<svg width="184" height="184" viewBox="0 0 184 184" fill="none" xmlns="http://www.w3.org/2000/svg">
<g clip-path="url(#clip0_31_2018)">
<path d="M92 0C41.2 0 0 41.2 0 92C0 142.8 41.2 184 92 184C142.8 184 184 142.8 184 92C184 41.2 142.9 0 92 0Z" fill="#F19A81"/>
<path d="M105.8 1C101.3 0.3 96.7 0 92 0C89 0 86 0.1 83 0.4C74.8 10.1 66 19.4 54.2 24.9C43.2 30.1 31.5 33.5 19.5 35.3C14 42.3 9.50001 50.2 6.20001 58.7C45 54.3 85.1 34.9 105.8 1Z" fill="#EC8368"/>
<path d="M2.6 105.4C13.2 104.4 23.5 102.6 33.7 99.6C59.1 92 82.3 78.4 102.1 60.9C117.5 47.3 130 31.1 139.2 13C132.9 9.2 126.1 6.2 119 4C114.4 13.4 107.7 21.8 100.3 29.1C83.5 45.6 62.4 59.5 39.9 66.9C28.8 70.6 17 72.4 5.5 74.6C4.2 74.8 2.8 75.1 1.5 75.3C0.5 80.7 0 86.3 0 92C0 96.6 0.3 101.1 1 105.5C1.7 105.4 2.3 105.4 2.6 105.4Z" fill="#EC8368"/>
<path d="M86.4 180.6C110.4 169.1 133.1 153.8 151.6 134.6C160.6 125.2 168.6 115 175.7 104C179 98.9 181.7 93.5 184 88C183.8 84.2 183.4 80.5 182.8 76.8C175.4 89.1 166.2 100.4 155.7 110.2C137.2 127.3 114.6 139.7 91.4 149.3C79 154.4 66.3 158.7 53.4 162.1C48 163.5 42.6 164.8 37.2 165.9C49.6 175.1 64.4 181.4 80.5 183.4C82.4 182.4 84.4 181.5 86.4 180.6Z" fill="#EC8368"/>
<path d="M183.9 96C172.5 118.9 159.7 141.2 142.3 160.1C136.2 166.8 129.6 172.9 122.7 178.7C157.3 166.6 182.3 134.3 183.9 96C183.9 96 184 96 183.9 96Z" fill="#EC8368"/>
<path d="M29.5 159.5C31.8 159 34.1 158.4 36.4 157.8C51 154 65.4 149.4 79 143.2C102.7 132.4 123.5 117.2 141.1 98.0001C154.6 83.2001 166.5 66.0001 172.2 46.7001C168.5 40.1001 164 34.1001 158.8 28.6001C148.9 50.5001 131.3 68.1001 111.7 81.9001C90.8 96.6001 67.6 108.2 43.3 115.7C32.9 118.9 22.2 121.7 11.5 123.5C9.7 123.8 7.8 124.1 6 124.3C10.9 137.8 19.1 149.9 29.5 159.5Z" fill="#EC8368"/>
<path d="M23.6 51.4C33.4 49.5 42.7 45.5 51.5 41.1C60 36.8 68.2 32.3 75.9 26.7C85.2 19.8 95.1 10.9 101.3 0.5C98.3 0.1 95.2 0 92 0C91.6 0 91.2 0 90.9 0C90.4 0.8 89.9 1.6 89.4 2.3C85.6 7.9 80.7 12.8 75.6 17.2C63.6 27.3 49.2 35.9 33.9 39.7C28.1 41.2 21.6 41.9 15.6 40.9C13.3 44.3 11.2 48 9.40002 51.7C13.9 52.7 19 52.3 23.6 51.4Z" fill="#E7645F"/>
<path d="M54.8 82.4999C78.5 73.5999 99.8 58.6999 117.2 40.3999C125.3 31.8999 132.6 22.6999 139.2 12.9999C134.6 10.1999 129.7 7.8999 124.6 5.8999C124.3 6.4999 124 7.0999 123.6 7.6999C117.1 19.6999 109.1 30.8999 99.2 40.1999C83.6 54.9999 64.6 65.3999 44.9 73.4999C36 77.1999 26.6 80.4999 16.9 81.4999C11.4 81.9999 5.79998 81.6999 0.799976 79.7999C0.399976 82.5999 0.199976 85.3999 0.0999756 88.1999C18.3 91.9999 37.5 89.0999 54.8 82.4999Z" fill="#E7645F"/>
<path d="M46.1 136C60.9 132.7 75.5 127.6 89.1 121C111.5 110 132.8 95.6 149.1 76.5C156.8 67.5 163.8 57.5 168.8 46.7C169.3 45.7 169.7 44.7 170.2 43.6C168.3 40.6 166.3 37.7 164.1 35C159.7 43.7 154.3 52 148.3 59.6C135 76.4 118.6 91.2 100.3 102.4C84.6 112 67.1 118.8 49.3 123.1C39.8 125.4 29.9 127.1 20.1 126.8C15.3 126.6 10.4 126 5.79999 124.5C7.49999 129.1 9.69999 133.6 12.1 137.8C23.4 139.6 35.1 138.4 46.1 136Z" fill="#E7645F"/>
<path d="M103.1 172.7C114.6 165.9 125.6 158.3 135.6 149.4C145.6 140.5 155.1 130.8 162.3 119.5C171.6 104.9 176.8 88.5 181.8 72.1C181.6 71.1 181.4 70.1 181.1 69.2C173.2 87 163 103.8 149.9 118.4C132.7 137.7 111.2 153.8 88.1 165.3C78.5 170.1 68.4 174.3 58.3 177.8C66.1 180.9 74.5 183 83.2 183.8C90.3 180.7 97 176.4 103.1 172.7Z" fill="#E7645F"/>
<path d="M146.9 165.2C146.3 165.9 145.7 166.5 145.1 167.2C165 153.1 179.1 131.2 183 106C174.1 127.4 162.1 147.7 146.9 165.2Z" fill="#E7645F"/>
<path d="M136.7 47.3001C136.1 45.1001 132.2 47.2001 128.7 49.5001C128.1 49.6001 127.6 49.9001 126.9 50.5001C123.9 53.0001 120.7 55.2001 117.7 57.9001C113.7 61.6001 109.6 66.6001 107.5 71.6001C107.4 71.9001 107.5 72.3001 107.8 72.4001C110 73.3001 112.9 71.7001 114.8 70.8001C118.6 69.0001 122.2 67.5001 125.5 64.9001C128.8 62.3001 131.6 58.4001 134.2 55.2001C135.9 53.1001 137.5 50.0001 136.7 47.3001Z" fill="#E7645F"/>
<path d="M130.6 52.3001C130.3 51.1001 128 52.2001 126 53.6001C125.6 53.6001 125.3 53.8001 124.9 54.1001C123.2 55.5001 121.3 56.8001 119.7 58.3001C117.4 60.4001 115 63.2001 113.9 66.1001C113.8 66.3001 113.9 66.5001 114.1 66.5001C115.4 67.0001 117 66.1001 118.1 65.6001C120.3 64.6001 122.3 63.8001 124.2 62.2001C126.1 60.7001 127.7 58.5001 129.2 56.6001C130.1 55.7001 131.1 53.9001 130.6 52.3001Z" fill="#8F3F3D"/>
<path d="M127.6 54.9001C127.4 54.1001 126 54.8001 124.8 55.7001C124.6 55.7001 124.4 55.8001 124.1 56.0001C123 56.9001 121.9 57.7001 120.9 58.6001C119.5 59.8001 118 61.6001 117.3 63.4001C117.2 63.5001 117.3 63.6001 117.4 63.7001C118.2 64.1001 119.2 63.5001 119.9 63.1001C121.3 62.5001 122.5 62.0001 123.7 61.1001C124.9 60.2001 125.9 58.8001 126.8 57.7001C127.2 56.9001 127.8 55.8001 127.6 54.9001Z" fill="#F19A81"/>
<path d="M133.3 116.8C132.9 115.3 130.2 116.7 127.8 118.3C127.4 118.4 127 118.5 126.5 119C124.4 120.7 122.2 122.3 120.2 124.1C117.4 126.6 114.6 130.1 113.2 133.6C113.1 133.8 113.2 134 113.4 134.1C114.9 134.8 116.9 133.6 118.2 133C120.8 131.8 123.3 130.7 125.6 128.9C127.9 127.1 129.8 124.5 131.6 122.2C132.7 120.7 133.8 118.6 133.3 116.8Z" fill="#E7645F"/>
<path d="M129.1 120.3C128.9 119.4 127.3 120.2 126 121.2C125.7 121.2 125.6 121.3 125.3 121.6C124.1 122.6 122.8 123.5 121.7 124.5C120.1 126 118.5 127.9 117.7 129.9C117.7 130 117.7 130.2 117.8 130.2C118.7 130.6 119.8 129.9 120.6 129.6C122.1 128.9 123.5 128.3 124.8 127.3C126.1 126.3 127.2 124.8 128.2 123.5C128.8 122.5 129.4 121.3 129.1 120.3Z" fill="#8F3F3D"/>
<path d="M127 122C126.9 121.5 125.9 122 125.1 122.5C125 122.5 124.8 122.6 124.6 122.7C123.9 123.3 123.1 123.9 122.4 124.5C121.4 125.4 120.4 126.6 119.9 127.8C119.9 127.9 119.9 127.9 120 128C120.5 128.2 121.2 127.8 121.7 127.6C122.6 127.2 123.5 126.8 124.3 126.2C125.1 125.5 125.8 124.6 126.4 123.8C126.8 123.4 127.2 122.6 127 122Z" fill="#F19A81"/>
<path d="M124.8 166.4C124.7 165.2 122.4 165.9 120.3 166.9C120 166.9 119.7 167 119.2 167.3C117.3 168.4 115.4 169.3 113.5 170.5C111 172.1 108.3 174.5 106.8 177C106.7 177.1 106.7 177.4 106.9 177.4C108 178.1 109.7 177.5 110.9 177.2C113.1 176.6 115.2 176.1 117.2 175C119.2 173.9 121.1 172 122.8 170.5C123.8 169.4 125 167.9 124.8 166.4Z" fill="#E7645F"/>
<path d="M121 168.6C120.9 167.9 119.6 168.3 118.4 168.9C118.2 168.9 118 169 117.8 169.1C116.7 169.7 115.6 170.2 114.6 170.9C113.2 171.8 111.6 173.2 110.7 174.6C110.6 174.7 110.6 174.8 110.8 174.8C111.4 175.2 112.4 174.9 113.1 174.7C114.4 174.4 115.6 174.1 116.7 173.4C117.9 172.8 118.9 171.7 119.9 170.8C120.5 170.3 121.1 169.5 121 168.6Z" fill="#8F3F3D"/>
<path d="M119.2 169.7C119.2 169.2 118.3 169.5 117.6 169.8C117.5 169.8 117.4 169.8 117.2 169.9C116.5 170.3 115.9 170.6 115.2 171C114.3 171.6 113.4 172.4 112.8 173.3V173.4C113.2 173.7 113.8 173.4 114.2 173.3C115 173.1 115.7 172.9 116.5 172.5C117.2 172.1 117.9 171.5 118.5 170.9C118.8 170.7 119.2 170.2 119.2 169.7Z" fill="#F19A81"/>
<path d="M78.2 39.1C78.1 38.1 76.2 38.7 74.4 39.5C74.1 39.5 73.9 39.6 73.5 39.8C71.9 40.7 70.3 41.5 68.7 42.5C66.6 43.9 64.3 45.8 63 48C62.9 48.1 62.9 48.3 63.1 48.4C64 49 65.5 48.5 66.4 48.2C68.3 47.7 70 47.3 71.8 46.3C73.5 45.4 75.1 43.8 76.5 42.5C77.4 41.7 78.4 40.4 78.2 39.1Z" fill="#E7645F"/>
<path d="M75.1 41.0001C75 40.4001 73.9 40.8001 72.9 41.2001C72.7 41.2001 72.6 41.3001 72.4 41.4001C71.5 41.9001 70.5 42.4001 69.7 42.9001C68.5 43.7001 67.2 44.8001 66.4 46.1001C66.4 46.2001 66.4 46.3001 66.4 46.3001C67 46.6001 67.8 46.3001 68.3 46.2001C69.4 45.9001 70.4 45.7001 71.4 45.1001C72.4 44.6001 73.3 43.7001 74.1 42.9001C74.6 42.5001 75.1 41.7001 75.1 41.0001Z" fill="#8F3F3D"/>
<path d="M73.5 41.9C73.5 41.5 72.8 41.8 72.2 42C72.1 42 72 42.1 71.9 42.1C71.3 42.4 70.8 42.7 70.2 43.1C69.5 43.6 68.7 44.3 68.2 45C68.2 45.1 68.2 45.1 68.2 45.1C68.5 45.3 69 45.1 69.4 45C70.1 44.8 70.7 44.7 71.3 44.4C71.9 44.1 72.5 43.5 73 43.1C73.2 42.8 73.5 42.4 73.5 41.9Z" fill="#F19A81"/>
<path d="M48.6 102.3C48.8 100.2 44.8 100.6 40.9 101.4C40.3 101.3 39.8 101.3 38.9 101.6C35.4 102.7 31.8 103.5 28.3 104.8C23.5 106.6 18.1 109.5 14.6 113.2C14.4 113.4 14.3 113.7 14.6 114C16.2 115.6 19.3 115.2 21.3 115.1C25.3 114.9 28.9 114.9 32.7 113.8C36.5 112.7 40.3 110.3 43.7 108.3C45.9 107 48.3 104.9 48.6 102.3Z" fill="#E7645F"/>
<path d="M41.5 104.6C41.6 103.4 39.3 103.6 37.1 104.1C36.8 104 36.5 104.1 36 104.2C34 104.8 31.9 105.3 29.9 106C27.2 107 24.1 108.7 22.1 110.8C22 110.9 22 111.1 22.1 111.2C23 112.1 24.8 111.9 25.9 111.8C28.2 111.7 30.2 111.7 32.5 111C34.7 110.4 36.9 109 38.8 107.9C40 107.3 41.4 106.1 41.5 104.6Z" fill="#8F3F3D"/>
<path d="M38 105.7C38.1 104.9 36.7 105.1 35.3 105.4C35.1 105.4 34.9 105.4 34.6 105.5C33.4 105.9 32.1 106.2 30.9 106.7C29.2 107.4 27.3 108.4 26 109.7C25.9 109.8 25.9 109.9 26 110C26.6 110.6 27.6 110.4 28.4 110.4C29.8 110.3 31.1 110.3 32.4 109.9C33.7 109.5 35.1 108.7 36.3 108C37 107.4 37.9 106.6 38 105.7Z" fill="#F19A81"/>
<path opacity="0.5" d="M92 0C41.2 0 0 41.2 0 92C0 142.8 41.2 184 92 184C142.8 184 184 142.8 184 92C184 41.2 142.9 0 92 0ZM88.8 149.7C49.9 149.7 18.3 118.1 18.3 79.2C18.3 40.3 49.9 8.6 88.8 8.6C127.7 8.6 159.3 40.2 159.3 79.2C159.4 118.1 127.8 149.7 88.8 149.7Z" fill="#D7708A"/>
<path opacity="0.7" d="M153.7 23.7C168.4 40 177.4 61.6 177.4 85.3C177.4 136.1 136.2 177.3 85.4 177.3C61.7 177.3 40.1 168.3 23.8 153.6C40.5 172.3 64.9 184 92 184C142.8 184 184 142.8 184 92C184 64.9 172.3 40.5 153.7 23.7Z" fill="#B13B70"/>
</g>
<defs>
<clipPath id="clip0_31_2018">
<rect width="184" height="184" fill="white"/>
</clipPath>
</defs>
</svg>
