<svg width="150" height="150" viewBox="0 0 150 150" fill="none" xmlns="http://www.w3.org/2000/svg">
<g clip-path="url(#clip0_35_5357)">
<path d="M75 0C33.6 0 0 33.6 0 75C0 116.4 33.6 150 75 150C116.4 150 150 116.4 150 75C150 33.6 116.4 0 75 0Z" fill="#E5B470"/>
<path d="M75 0C33.6 0 0 33.6 0 75C0 116.4 33.6 150 75 150C116.4 150 150 116.4 150 75C150 33.6 116.4 0 75 0Z" fill="#7DB7E3"/>
<path d="M28.1 33.2C35.2 31.7 42.8 29.6 48.3 24.6C53.4 20 54.3 14 55.6 7.59995C56 5.69995 56.4 3.89995 57.1 2.19995C37.3 6.99995 20.7 19.5999 10.6 36.5999C16.4 35.1999 22.3 34.4 28.1 33.2Z" fill="#CC545D"/>
<path d="M22.5 75.8C27.3 75.8 32 75.9 36.7 74.7C42.8 73.1 48.6 70.2 53.5 66.2C58.3 62.2 62.4 57.3001 64 51.2001C65.5 45.5001 65.2 39.7001 65.3 33.9001C65.4 25.9001 65.6 17.6 67.5 9.80005C68.3 6.60005 69.4 3.20005 71 0.300049C70 0.400049 68.9 0.400049 67.9 0.500049C65.6 3.40005 63.3 6.30005 61.8 9.70005C58.9 16.3 58.5 24.0001 57.7 31.1C57 36.7 56.8 43.1 54 48.3C51.9 52.3 48.6 55.5001 44.8 57.9001C39.9 60.9001 34.5 62.8001 29 63.9001C22.8 65.1001 16.5 65.6 10.5 67.5C6.9 68.7 3.4 70 0.1 71.8C0 72.8 0 73.9 0 75C0 77 0.1 78.9 0.2 80.8C5.7 75.8 15.9 75.8 22.5 75.8Z" fill="#CC545D"/>
<path d="M98.9 132.3C99.1 130.3 98.7999 128.7 98.1999 126.8C97.8999 125.8 96.4999 126.4 95.6999 126.7C92.6999 127.7 90.3 129.8 87.8 131.5C81.9 135.5 74.9 137.5 68.9 141.3C65.7 143.3 62.4 145.6 59.7 148.4C64.6 149.4 69.8 150 75 150C81.2 150 87.3 149.3 93 147.8C96.5 143.4 98.4 138 98.9 132.3Z" fill="#CC545D"/>
<path d="M117.8 109.4C119.3 103.8 121 98.2 121.8 92.4C122.7 86 122.2 79.6 121.2 73.2C120.2 67.1 118.9 60.9 118.6 54.7C118.2 48.3 118.8 42 119.6 35.7C120.4 29.4 121.5 23.1 122.1 16.8C119.3 14.5 116.3 12.4 113.1 10.5C112.8 11.5 112.6 12.5 112.4 13.5C112.2 15.5 111.8 17.5 111.5 19.2C111.5 19.3 111.5 19.4 111.5 19.6C111.2 22.4 111 25.2 110.7 27.9C110.2 33.9 109 39.6 107.4 45.4C104 57.9 100.2 70.4 94 81.9C89.1 91.1 82.9 100.2 74.4 106.4C70.1 109.6 65.4999 111.5 60.2999 112.8C54.6999 114.1 49.1999 115.8 44.7999 119.6C40.6999 123.1 37.5 127.7 34.9 132.4C34.1 133.8 33.4 135.3 32.7 136.8C37.7 140.2 43.2 143.1 49 145.3C49.9 144.4 50.7999 143.5 51.7999 142.6C54.0999 140.5 56.4 138.7 59.2 137.4C65.8 134.2 72.9 132.3 79.4 128.9C84.6 126.2 89.5 122.6 93.3 118.1C95.1 115.9 97.2 113.5 98.2 110.8C98.8 109.3 99.2999 107.7 99.8999 106.2C101.1 103.1 102.3 99.1 104.9 97C106.3 95.9 108.3 96.5 108.8 98.2C109.5 100.9 108.5 104 107.8 106.6C106.8 109.9 105.6 113 104.3 116.2C102.5 120.7 101.5 125.7 101.6 130.6C101.7 135.3 103.6 139.5 104.5 144C108 142.5 111.4 140.7 114.7 138.7C112.7 128.9 115.1 119 117.8 109.4Z" fill="#CC545D"/>
<path d="M144 64.6001C139.5 64.1001 139.6 58.4001 139.2 55.1001C138.4 48.6001 136.3 42.4001 135.5 35.9001C135.2 33.9001 135 31.8001 134.9 29.8001C132 25.9001 128.7 22.3001 125 19.1001C124 22.4001 123.4 25.9001 123.1 29.4001C122.6 35.3001 122.5 41.3001 123.5 47.1001C124.5 52.7001 126.1 58.1001 126.8 63.7001C127.3 67.4001 127.1 70.8001 126.9 74.5001C126.7 77.6001 126.4 81.6001 127.9 84.5001C130.2 88.8001 135.8 86.6001 138.3 83.7001C141.6 80.1001 143.4 75.5001 146 71.4001C147 69.8001 148.1 68.3001 149.6 67.1001C149.5 65.8001 149.3 64.4001 149.1 63.1001C147.5 64.2001 145.8 64.8001 144 64.6001Z" fill="#CC545D"/>
<path d="M130.3 101.3C127.2 107.5 125.2 114.2 124.6 121.1C124.3 124.6 124.1 128.1 124.4 131.6C140.2 117.8 150.1 97.6001 150.1 75.1001C150.1 74.4001 150.1 73.7001 150.1 73.1001C142.2 81.4001 135.4 91.0001 130.3 101.3Z" fill="#CC545D"/>
<path d="M37.9 123.1C39.6 116.8 40 109.7 44.1 104.4C50.1 96.5 59.7 92.7 68.3 88.3C72.9 85.9 77.4 83.3 81 79.5C84.9 75.4 88 70.6 90.7 65.6C93.4 60.7 95.7 55.6 98.3 50.7C101.3 45 104.8 39.7 107 33.6C108.7 29.1 109.8 24.3 110.6 19.6C110.8 17.5 111.2 15.4 111.6 13.3C111.7 12 111.8 10.7 111.6 9.5C108.4 7.7 105 6.1 101.5 4.8V4.9C100.8 8.8 99.6 12.6 98.4 16.4C97.7 18.7 97 21 96 23.2C95.4 24.6 94.7 26.5 93.3 27.4C89.8 29.8 88.1 20.2 87.6 18.5C86 12.8 84.5 6.6 85.1 0.7C82.1 0.3 79 0.1 75.9 0C72.7 5.2 71.4 11.3 71.3 17.6C71.2 23.2 71.7 28.9 72.5 34.4C73.4 40.2 75.2 46.7 73.8 52.6C70.8 65.1 60.9 73.1 51.3 80.7C46.7 84.3 43.3 89.9 37.9 92.4C32.7 94.7 26.8 94.7 21.2 95.1C17.9 95.3 14.5 95.6 11.4 96.8C8.90002 97.8 6.60002 99.2 4.40002 100.7C9.70002 115.1 19.2 127.5 31.6 136.3C34 132 36.6 127.9 37.9 123.1Z" fill="#CC545D"/>
<path d="M29.3 28.9999C36.3 27.9999 45 26.5999 49.7 20.5999C53.5 15.6999 52.7999 9.3999 53.0999 3.3999C37.1999 8.1999 23.6 18.1999 14.2 31.3999C19.2 30.0999 24.6 29.5999 29.3 28.9999Z" fill="#DB5E38"/>
<path d="M9.6 71.5C13.9 70.6 18.3 70.2 22.7 69.6C27.2 69 31.7 67.9 36 66.6C44.7 64 51.9 59.6 56 51.2001C58.4 46.3001 60 41 60.8 35.5C61.5 30.3 61.6 25 62.1 19.8C62.5 15.2 63.3 10.7 65.1 6.40005C66.1 4.20005 67.3 2.20005 68.6 0.300049C66.9 0.400049 65.3 0.600049 63.6 0.900049C62.4 3.00005 61.3 5.30005 60.4 7.50005C56.9 15.5 53.7 23.5 47 29.4C34.9 39.9 18 42.2 4.4 49.8C1.6 57.6 0 66.1 0 75C0 75.1 0 75.2 0 75.2C2.8 73.3 6.3 72.2 9.6 71.5Z" fill="#CC545D"/>
<path d="M116.1 107.1C118.2 100.9 120.3 94.7001 120.4 88.1001C120.4 82.8001 119.3 77.7001 118.2 72.5001C115.7 61.0001 115 49.4001 115.2 37.6001C115.3 29.3001 115.9 21.0001 116.8 12.8001C115.7 12.0001 114.5 11.3001 113.3 10.6001C111 27.9001 108.8 45.3001 103.8 62.1001C100.3 74.0001 95.6001 85.6001 88.9001 96.2001C86.0001 100.8 82.9 105.4 78.6 108.8C75.5 111.2 72 112.9 68.2 114C59.1 116.7 48.7001 117.4 42.4001 125.5C39.3001 129.5 37.3 134.1 34.8 138.5C38.7 141 42.9 143.1 47.3 144.9C49.8 141.8 52.8 139.1 56.3 136.9C62.9 132.7 70.3 129.9 77.1 126.1C81 123.9 84.7 121.3 87.6 117.8C90.5 114.4 92.8001 110.5 94.8001 106.6C98.6001 99.2001 101.7 91.3001 106.9 84.7001C107.1 84.5001 107.4 84.6001 107.5 84.7001C111.1 87.6001 111.9 92.4001 111.6 96.8001C111.3 102.5 109.9 108.1 108.4 113.6C107 118.8 105.4 124 105.1 129.5C104.8 134.2 105.3 138.8 105.9 143.4C108.4 142.2 110.8 141 113.1 139.6C111.7 134.8 110.9 130 111.5 125C112.2 118.8 114.1 112.9 116.1 107.1Z" fill="#CC545D"/>
<path d="M94.7 129C84.8 135.2 73.5 140.7 65.6 149.5C68.7 149.9 71.9 150.1 75.1 150.1C80.9 150.1 86.5 149.4 91.9 148.2C94.3 141.7 97.1 135.3 94.7 129Z" fill="#CB4B37"/>
<path d="M138.5 67.4999C136.7 65.3999 136.7 61.3999 136.5 58.7999C136.1 54.1999 134.8 49.8999 133.8 45.3999C132.3 38.7999 131.4 32.1999 131.4 25.5999C129.6 23.5999 127.8 21.6999 125.8 19.8999C124.5 26.8999 124 33.9999 125 40.8999C126.7 52.1999 131.1 62.9999 131 74.4999C131 75.8999 130.2 82.8999 132.3 83.2999C134 83.5999 136 81.3999 137 80.3999C139.1 78.3999 141 76.1999 142.7 73.7999C144.7 70.9999 146.4 67.9999 148.1 64.9999C145.2 67.5999 141.1 70.4999 138.5 67.4999Z" fill="#DB5E38"/>
<path d="M147.5 77.5001C144 81.0001 141.5 85.1001 139.3 89.6001C135.2 97.9001 130.5 106.1 127.6 114.9C125.9 120 125.3 125.2 125.5 130.4C140.5 116.7 150 97.0001 150 75.1001C149.2 75.9001 148.3 76.7001 147.5 77.5001Z" fill="#CC545D"/>
<path d="M104.3 6.0001C103.2 10.9001 102.2 15.9001 100.8 20.7001C98.8 27.3001 96.1 34.5001 90.5 38.9001C90.3 39.1001 89.8 39.1001 89.7 38.7001C87.2 26.0001 84.7 13.4001 84.3 0.600098C82.2 0.300098 80 0.200098 77.8 0.100098C74.2 7.8001 73.8 16.1001 75 24.7001C76.3 33.4001 78.7 42.2001 77.6 51.1001C77.1 55.7001 75.8 60.6001 72.9 64.3001C69.7 68.3001 65.5 71.4001 61.5 74.5001C57.4 77.7001 53.7 80.9001 50.3 84.9001C47.1 88.7001 44.0001 93.0001 39.7001 95.7001C35.3001 98.6001 30.4001 98.7001 25.2001 98.2001C19.2001 97.5001 13.5 97.7001 8.60005 101.7C7.70005 102.5 6.70005 103.3 5.80005 104.1C10.4 115 17.4 124.6 26.3 132.1C28.9 130 31 127.5 32.5 124.5C34.3 120.8 35.4 116.9 36.6 113C38.2 107.7 40.4 102.7 44.3 98.7001C47.9 94.9001 52.4001 92.1001 56.7001 89.1001C61.9001 85.4001 66.7 81.2001 71.5 77.1001C76.4 73.0001 81.7 68.6001 85.3 63.3001C92.7 52.6001 100.4 41.6001 104.3 29.0001C106.4 22.3001 107.9 15.4001 110.1 8.8001C108.3 7.8001 106.3 6.8001 104.3 6.0001Z" fill="#DB5E38"/>
<path opacity="0.5" d="M75 0C33.6 0 0 33.6 0 75C0 116.4 33.6 150 75 150C116.4 150 150 116.4 150 75C150 33.6 116.4 0 75 0ZM69.1 128.6C34.8 128.6 7 100.8 7 66.5C7 32.2 34.8 4.5 69.1 4.5C103.4 4.5 131.2 32.3 131.2 66.6C131.2 100.8 103.4 128.6 69.1 128.6Z" fill="#871F52"/>
<g opacity="0.7">
<path d="M122.7 17.1001C136.8 30.7001 145.6 49.8001 145.6 71.0001C145.6 112.4 112 146 70.6 146C52.5 146 35.8 139.6 22.9 128.9C36.3 142 54.7 150 75 150C116.4 150 150 116.4 150 75.0001C150 51.7001 139.4 30.9001 122.7 17.1001Z" fill="#871F52"/>
</g>
</g>
<defs>
<clipPath id="clip0_35_5357">
<rect width="150" height="150" fill="white"/>
</clipPath>
</defs>
</svg>
