<svg width="222" height="232" viewBox="0 0 222 232" fill="none" xmlns="http://www.w3.org/2000/svg">
<g clip-path="url(#clip0_17_976)">
<path d="M216.512 90.6423C215.248 89.7099 213.917 88.9107 212.653 88.3113C209.061 86.613 204.038 86.1801 199.88 86.4132C201.077 85.7139 202.242 84.8814 203.339 83.9823C206.499 81.4515 208.794 76.4232 209.16 72.2941C208.761 67.5322 208.262 62.6704 209.46 58.1083C210.657 53.5796 213.451 50.7824 217.177 49.0841C214.882 47.9519 212.254 48.3848 209.759 49.4504C203.905 51.9812 201.111 56.5432 193.793 57.0427C188.903 57.3757 184.612 52.9469 180.421 50.9489C179.556 50.516 178.558 50.3162 177.494 50.2163C179.789 47.6522 180.554 44.0891 183.015 41.858C184.379 40.6259 183.614 38.4947 181.851 39.8267C177.261 43.2566 173.369 40.6592 168.712 39.5603C172.304 38.2949 176.496 37.2959 175.797 32.867C175.099 28.4049 172.138 25.8741 168.878 22.977C166.45 20.8125 165.352 18.1152 165.186 15.3513C164.787 13.5864 164.72 11.7217 165.153 9.79026C165.885 6.46028 167.381 3.29679 169.71 1.0657C166.117 0.299807 161.361 2.3311 159.132 5.22818C157.336 7.55917 157.303 11.3221 156.77 14.0193C154.475 25.4412 144.43 19.3806 138.143 20.2797C134.251 20.8125 128.463 22.3443 126.368 26.307C124.139 24.2757 121.145 22.8438 119.682 20.0799C118.75 18.3483 119.748 15.7842 120.779 13.1868C120.713 11.1889 120.38 9.29076 119.782 7.45927C119.515 7.79227 119.283 8.09197 119.15 8.49157C117.886 12.4875 114.426 14.1525 110.601 15.1848C108.073 15.8841 105.611 17.649 103.882 19.5804C102.152 21.5118 100.888 23.9094 100.023 26.5068C97.1292 23.6097 92.2727 20.9124 88.9464 17.8821C87.3497 16.9497 85.9527 15.7842 85.0878 14.1858C84.2895 12.654 83.9236 10.8892 83.9568 9.12426C73.7117 12.0547 75.9736 21.312 71.849 28.5381C71.5829 26.7732 70.9841 25.2414 69.8532 24.0093C64.531 22.644 59.1423 23.8428 53.7537 23.1768C51.9242 22.9437 48.864 22.2111 48.5313 19.9134C48.3983 19.0809 48.4981 18.2484 48.6976 17.4159C44.4399 21.7782 40.7144 26.8065 40.2155 33.1334C39.8163 38.3615 40.914 42.2243 44.3401 46.2536C45.205 47.2526 47.234 48.2849 48.3317 48.9176C49.7621 49.4837 51.1591 50.1497 52.5229 50.8823C52.6892 51.1154 52.8556 51.3152 53.0219 51.5483C49.7621 51.6482 45.5709 52.9802 44.6062 53.3798C41.7123 54.6118 38.9182 55.9771 36.1573 57.4756C27.8747 61.9045 30.7687 51.0155 31.1013 49.1174C31.4339 47.1194 29.172 46.4867 27.7084 46.1537C27.4091 46.0871 27.1429 46.0538 26.8768 46.0205C21.2886 46.4201 15.3012 51.0821 11.5424 55.3777C11.8085 55.3444 12.0746 55.3111 12.3075 55.2445C18.1951 55.7773 19.7585 57.6088 16.9976 60.7723C15.8667 62.8369 15.6005 63.5029 15.1016 65.2012C15.3012 69.2305 15.8667 73.6261 17.5298 77.289C17.7959 77.5554 18.062 77.8551 18.3281 78.1215C19.3926 81.4515 23.7833 83.4828 26.7438 84.282C29.2718 84.9813 31.7666 84.8481 33.8954 85.2144C32.6979 85.2477 31.4007 85.3809 29.9371 85.7472C27.1097 86.4465 25.0474 88.5777 23.2511 90.6756C19.193 95.4041 11.1765 100.799 7.48427 92.4072C6.65269 94.4717 5.95416 96.6029 5.555 98.7674C5.15583 100.865 4.72341 103.796 5.88763 105.76C7.45101 108.358 10.9104 109.124 13.5049 107.425C15.9664 105.794 19.2595 102.63 22.5526 104.062C25.7459 105.461 27.5754 112.953 27.0099 112.953C19.5256 112.986 18.561 124.841 11.11 124.641C9.24723 124.575 7.25143 124.075 5.58826 123.11C9.34702 128.338 15.8334 134.398 22.7189 137.895C19.6919 137.728 16.5984 138.128 14.0039 139.826C12.2742 140.958 10.611 142.257 9.21397 143.756C6.28679 148.251 6.98532 154.112 5.58826 159.573C4.85646 162.537 3.25982 164.768 0.931381 165.234C3.8253 166.3 7.25143 167.798 10.1453 165.833C14.902 162.67 19.0599 151.914 25.2137 159.34C29.3383 164.335 34.9266 165.434 40.8142 164.734C36.7893 166.3 33.0971 168.364 30.4693 171.927C29.1055 173.792 28.407 175.956 28.1741 178.188C28.1408 179.819 28.407 181.384 29.0057 182.916C30.4693 186.546 34.9931 190.642 35.0596 194.704C35.1262 198.334 32.9308 202.23 29.7708 203.262C33.1969 203.862 36.5565 203.629 40.0159 202.33C46.8349 199.866 46.7684 189.276 51.2922 185.014C50.5604 186.346 49.9616 187.711 50.0282 188.877C50.2943 193.272 57.7453 200.698 52.5895 204.295C52.4231 204.428 52.157 204.694 51.9242 205.061C54.2194 206.226 57.1798 206.259 59.8409 205.56C61.2047 204.894 62.4687 204.095 63.6994 203.029C65.4957 201.464 66.8262 199.633 67.9904 197.735C67.8574 200.632 68.9883 203.495 72.0486 205.926C78.6014 211.154 94.967 216.749 80.0318 226.639C79.1669 227.205 78.036 228.171 77.5703 229.27C81.4621 231.834 89.6116 231.068 92.938 230.335C99.4243 228.87 104.846 225.873 109.337 221.477C112.464 216.949 114.06 211.421 114.393 205.76C115.025 206.093 115.69 206.393 116.455 206.526C120.68 207.358 129.86 206.259 128.962 213.119C128.862 213.852 128.862 214.351 128.962 214.817C132.788 214.151 136.846 210.455 138.176 206.759C138.442 203.762 136.613 201.098 135.615 198.301C145.96 198.167 157.336 185.414 166.749 193.006C168.08 189.942 167.481 186.779 165.718 183.083C164.82 181.151 164.022 179.453 163.723 177.488C162.758 172.693 162.758 171.161 163.756 172.959C166.783 175.191 169.311 174.991 172.97 174.425C178.691 173.492 183.78 174.225 186.375 180.052C187.705 183.016 186.042 185.647 184.446 188.078C184.911 187.811 185.444 187.578 186.009 187.378C190.666 185.88 194.524 185.214 198.084 181.384C203.938 175.091 204.104 166.866 199.514 159.806C198.316 157.941 196.986 156.409 195.489 154.944C192.296 152.746 188.803 150.216 186.242 147.751C197.019 148.817 199.98 131.002 207.298 127.971C209.426 126.073 211.722 124.908 214.05 125.441C213.784 122.077 209.892 119.913 206.167 118.448C204.204 118.181 202.408 118.148 200.379 118.348C198.915 118.481 197.518 119.347 196.121 120.146C196.986 118.414 197.718 116.649 198.383 115.118C199.913 111.455 201.975 107.825 205.202 105.76C207.597 103.696 210.391 102.197 213.684 101.764C215.946 101.465 218.773 101.798 221.135 102.83C221.468 98.7008 219.472 94.1055 216.512 90.6423Z" fill="#DE5D26"/>
<path d="M85.8196 232C83.1585 232 79.4663 231.667 77.0381 230.069C76.6722 229.836 76.5391 229.369 76.7054 228.97C77.404 227.438 79.0006 226.272 79.4663 225.973C83.2916 223.442 85.2209 221.078 85.1876 218.913C85.1543 215.517 80.3977 212.52 76.1732 209.922C74.4102 208.823 72.7471 207.791 71.4498 206.725C69.1879 204.927 67.7908 202.829 67.2919 200.432C66.4603 201.531 65.4624 202.729 64.2649 203.795C63.0342 204.861 61.6704 205.76 60.2068 206.459C56.7474 207.391 53.7869 207.125 51.4918 205.96C51.2589 205.826 51.0926 205.627 51.0261 205.393C50.9595 205.127 51.0261 204.861 51.1591 204.661C51.3587 204.394 51.7246 203.928 52.0572 203.695C54.5853 201.897 53.3878 199 51.2589 194.771C50.3941 193.039 49.5625 191.441 49.2298 189.942C48.8307 190.908 48.4315 191.94 48.0324 192.973C46.3692 197.268 44.6728 201.697 40.3153 203.296C36.7561 204.561 33.2967 204.894 29.6044 204.228C29.2053 204.161 28.9059 203.828 28.8726 203.395C28.8394 202.996 29.1055 202.596 29.5046 202.496C32.1325 201.664 34.2281 198.201 34.1615 194.804C34.1283 192.54 32.4651 190.142 30.8684 187.811C29.804 186.246 28.8061 184.814 28.2074 183.316C27.5754 181.784 27.276 180.119 27.3093 178.254C27.6086 175.557 28.4402 173.326 29.7708 171.461C31.6335 168.897 34.0285 167.132 36.4234 165.833C31.5337 165.534 27.5421 163.569 24.5484 159.972C23.2844 158.474 22.1202 157.741 20.9892 157.741C18.9269 157.741 16.8646 160.172 14.8687 162.503C13.5382 164.068 12.1411 165.7 10.6776 166.666C9.57986 167.398 8.34912 167.731 6.95206 167.731C4.98951 167.731 2.99371 166.999 1.23075 166.366L0.632008 166.133C0.26611 166 3.13637e-06 165.633 0.06653 165.234C0.0997934 164.834 0.365901 164.501 0.765062 164.435C2.59455 164.068 4.02488 162.237 4.75667 159.44C5.25562 157.542 5.4552 155.51 5.68805 153.579C6.08721 150.049 6.51963 146.386 8.48217 143.323C9.84597 141.824 11.4094 140.525 13.5382 139.127C15.2346 138.028 17.1972 137.329 19.4924 137.095C14.0372 133.732 8.5487 128.704 4.92299 123.642C4.69014 123.309 4.69014 122.81 4.98951 122.51C5.25562 122.21 5.72131 122.144 6.08721 122.344C7.5508 123.209 9.38028 123.709 11.1765 123.742C14.5028 123.742 16.3989 121.112 18.3947 118.314C20.457 115.451 22.5526 112.52 26.2116 112.087C25.9122 110.322 24.3488 105.76 22.2532 104.861C20.1244 103.929 17.5631 105.627 15.4342 107.192C14.9353 107.525 14.4696 107.891 14.0372 108.158C13.006 108.857 11.7753 109.223 10.5445 109.223C8.31586 109.223 6.32005 108.091 5.1891 106.193C3.79203 103.862 4.39077 100.566 4.75667 98.6008C5.0893 96.6361 5.72131 94.5716 6.71921 92.0741C6.85227 91.7411 7.15164 91.508 7.5508 91.508C7.88343 91.5413 8.21607 91.7078 8.38238 92.0408C9.51334 94.6381 11.11 95.8702 13.2056 95.8702C16.4987 95.8702 20.3905 92.7401 22.6856 90.0428C24.1492 88.3445 25.8789 86.4797 28.1408 85.4474C27.6419 85.3475 27.1429 85.2476 26.644 85.1144C23.0848 84.1487 18.8936 81.9509 17.6961 78.5876C17.5631 78.4544 17.3968 78.2879 17.2637 78.1214L17.0309 77.8883C16.9643 77.8217 16.8978 77.7218 16.8646 77.6552C15.401 74.4917 14.6026 70.3959 14.3365 65.2344C14.3365 65.1345 14.3365 65.0346 14.3698 64.9347C14.902 63.1365 15.2014 62.4039 16.3656 60.306C16.3989 60.2727 16.4321 60.2061 16.4654 60.1395C17.3302 59.1405 17.7294 58.308 17.5298 57.8085C17.3635 57.4089 16.5652 56.5098 12.507 56.1102C12.2742 56.1435 12.0414 56.1768 11.7752 56.2101C11.4094 56.2767 11.0435 56.0769 10.8771 55.7439C10.7108 55.4442 10.7441 55.0113 11.0102 54.7449C14.8022 50.3494 20.9892 45.4876 26.8768 45.0214C26.9434 45.0214 27.0099 45.0214 27.0764 45.0547C27.4756 45.1213 27.7417 45.1546 27.9745 45.2212C29.1055 45.4876 32.5316 46.2868 32.0327 49.1839C31.9994 49.3504 31.9661 49.6168 31.8996 49.9165C31.567 51.5149 30.7354 55.7106 31.8996 57.1425C32.0659 57.3423 32.332 57.5754 32.964 57.5754C33.6958 57.5754 34.6272 57.2757 35.8247 56.643C38.6853 55.1112 41.4795 53.7459 44.3401 52.5138C45.0387 52.2142 47.8328 51.2818 50.6934 50.8489C49.8286 50.416 48.9637 50.0497 48.0989 49.6834L47.5002 49.3504C46.3027 48.6844 44.6062 47.7853 43.7414 46.7863C40.2155 42.6571 38.9515 38.6611 39.4171 33.0001C39.9826 25.9739 44.3734 20.6126 48.1654 16.7165C48.4315 16.4501 48.8972 16.3835 49.2298 16.55C49.5957 16.7498 49.7621 17.1494 49.6623 17.549C49.4627 18.3149 49.4294 19.0142 49.5292 19.6802C49.7953 21.5117 52.7225 22.0445 53.9865 22.211C55.1507 22.3442 56.4147 22.4108 57.9781 22.4108C58.8762 22.4108 59.7411 22.3775 60.6392 22.3775C61.5373 22.3442 62.4354 22.3442 63.3335 22.3442C65.2295 22.3442 67.7243 22.4108 70.2191 23.0768C70.3854 23.1101 70.5184 23.21 70.6515 23.3432C71.3167 24.0758 71.849 24.9083 72.2481 25.874C72.9134 24.209 73.3458 22.4774 73.7782 20.7791C75.1088 15.6176 76.4726 10.2897 83.8571 8.19176C84.1232 8.12516 84.4225 8.15846 84.6554 8.35826C84.8882 8.52476 85.0213 8.79116 84.988 9.09086C84.9547 10.7558 85.2874 12.3542 86.0192 13.7195C86.6845 15.0182 87.8487 16.1171 89.5118 17.0495C89.5451 17.0828 89.6116 17.1161 89.6782 17.1827C91.175 18.548 93.0378 19.8467 94.834 21.1454C96.5304 22.3442 98.2934 23.6096 99.757 24.875C100.688 22.5773 101.853 20.5793 103.316 18.9476C105.312 16.6832 107.973 14.9516 110.468 14.2523C113.728 13.3532 117.22 11.9213 118.418 8.15846C118.584 7.59236 118.917 7.15947 119.216 6.79317C119.416 6.56007 119.748 6.42687 120.081 6.49347C120.38 6.56007 120.646 6.79317 120.746 7.09287C121.378 8.99096 121.711 10.9223 121.811 13.0868C121.811 13.22 121.777 13.3532 121.744 13.4531C120.68 16.0172 119.881 18.2483 120.58 19.5803C121.478 21.2786 123.041 22.4441 124.705 23.6762C125.237 24.0758 125.769 24.4754 126.268 24.875C128.796 21.3119 134.018 19.88 138.11 19.3139C139.972 19.0475 142.168 19.3805 144.297 19.6802C145.86 19.9133 147.457 20.1464 148.92 20.1464C151.781 20.1464 154.874 19.3805 155.972 13.7861C156.105 13.1534 156.205 12.4208 156.305 11.6882C156.637 9.29066 157.037 6.59337 158.5 4.66198C160.928 1.49849 166.217 -0.599397 169.943 0.199799C170.275 0.266398 170.542 0.499497 170.608 0.832496C170.708 1.13219 170.608 1.49849 170.375 1.73159C168.346 3.66298 166.816 6.62667 166.084 9.98995C165.718 11.6882 165.718 13.4198 166.117 15.1514C166.317 18.1151 167.448 20.4794 169.544 22.3109L169.776 22.544C172.97 25.4078 175.997 28.0718 176.728 32.7337C177.36 36.7297 174.6 38.3947 171.706 39.5269C171.772 39.5269 171.872 39.5602 171.939 39.5935C173.702 40.1596 175.365 40.6924 176.995 40.6924C178.558 40.6924 179.955 40.1929 181.352 39.1606C182.649 38.1949 184.08 38.4946 184.512 39.6601C184.878 40.5925 184.545 41.758 183.681 42.5572C182.483 43.6561 181.685 45.1546 180.853 46.7197C180.354 47.6854 179.822 48.6844 179.19 49.6168C179.789 49.75 180.354 49.9498 180.886 50.1829C182.25 50.8489 183.647 51.748 184.978 52.6138C187.805 54.4785 190.732 56.4099 193.793 56.2101C198.183 55.9104 200.878 54.0456 203.738 52.081C205.468 50.8822 207.231 49.6501 209.46 48.7177C212.586 47.3524 215.347 47.2525 217.609 48.3514C217.909 48.4846 218.108 48.8176 218.108 49.1839C218.108 49.5169 217.909 49.8166 217.576 49.9831C213.751 51.7147 211.422 54.4785 210.358 58.4412C209.26 62.5704 209.659 67.0992 210.025 71.4948L210.092 72.3273C209.693 77.0558 207.098 82.2506 203.938 84.8147C203.605 85.0811 203.239 85.3475 202.907 85.6139C205.535 85.6805 209.693 86.0468 213.052 87.6452C214.383 88.2446 215.78 89.1104 217.077 90.0428C217.11 90.0761 217.177 90.1427 217.21 90.176C220.57 94.1053 222.366 98.9338 221.967 103.096C221.933 103.396 221.767 103.629 221.534 103.796C221.268 103.962 220.969 103.962 220.703 103.829C218.607 102.93 215.913 102.53 213.717 102.83C210.823 103.23 208.196 104.462 205.668 106.626C202.242 108.824 200.279 112.82 199.082 115.65L198.849 116.183C198.549 116.849 198.283 117.582 197.951 118.314C198.682 117.981 199.414 117.748 200.179 117.682C202.242 117.482 204.104 117.515 206.167 117.782C206.233 117.782 206.3 117.815 206.366 117.815C209.759 119.18 214.283 121.411 214.782 125.274C214.815 125.374 214.848 125.507 214.848 125.64C214.848 126.14 214.449 126.539 213.95 126.539H213.917C213.85 126.539 213.784 126.539 213.717 126.506C211.921 126.107 209.925 126.906 207.763 128.837C207.697 128.904 207.597 128.97 207.497 129.004C204.77 130.136 202.607 133.699 200.312 137.462C197.285 142.423 193.859 147.984 188.371 148.784C190.267 150.449 192.761 152.28 195.855 154.378C197.651 156.143 198.982 157.741 200.113 159.506C205.069 167.165 204.503 175.856 198.583 182.183C195.389 185.58 192.063 186.612 188.171 187.778C187.506 187.978 186.807 188.177 186.109 188.411C185.643 188.577 185.177 188.744 184.712 189.01C184.346 189.21 183.913 189.143 183.614 188.843C183.348 188.544 183.315 188.078 183.514 187.745C185.244 185.147 186.475 183.016 185.41 180.585C183.747 176.855 180.953 175.157 176.595 175.157C175.498 175.157 174.3 175.257 172.97 175.49C169.011 176.123 166.483 176.056 163.889 174.425C163.989 175.124 164.155 176.123 164.454 177.521C164.754 179.453 165.585 181.218 166.384 182.916C168.446 187.212 168.779 190.508 167.448 193.572C167.348 193.838 167.115 194.005 166.849 194.071C166.583 194.138 166.284 194.071 166.084 193.905C164.221 192.406 162.192 191.674 159.897 191.674C156.172 191.674 152.247 193.505 148.122 195.437C144.396 197.168 140.571 198.933 136.812 199.333C136.979 199.732 137.178 200.132 137.345 200.565C138.243 202.596 139.174 204.694 138.975 207.058C138.975 207.125 138.941 207.225 138.941 207.292C137.444 211.421 133.087 215.217 129.029 215.916C128.563 215.983 128.131 215.716 128.031 215.283C127.865 214.684 127.898 214.051 127.998 213.252C128.164 211.987 127.964 211.021 127.366 210.322C125.935 208.557 122.343 208.257 119.482 208.057C118.285 207.958 117.154 207.858 116.222 207.658C115.856 207.591 115.491 207.491 115.125 207.358C114.626 212.986 112.863 218.114 110.035 222.243C105.212 226.972 99.5574 230.035 93.1043 231.467C91.4744 231.634 88.7135 232 85.8196 232ZM78.7678 229.003C80.3977 229.802 82.8259 230.202 85.8196 230.202C88.5805 230.202 91.2083 229.836 92.7384 229.503C98.8589 228.137 104.248 225.24 108.705 220.878C111.466 216.849 113.162 211.587 113.495 205.76C113.495 205.46 113.694 205.194 113.96 205.027C114.227 204.861 114.559 204.861 114.825 205.027C115.457 205.36 116.023 205.593 116.622 205.726C117.453 205.893 118.551 205.96 119.715 206.059C123.108 206.326 126.933 206.626 128.862 208.99C129.761 210.089 130.093 211.521 129.894 213.252C129.86 213.419 129.86 213.585 129.827 213.685C132.921 212.719 136.147 209.722 137.345 206.559C137.444 204.694 136.679 202.929 135.815 201.064C135.449 200.265 135.083 199.433 134.783 198.6C134.684 198.334 134.717 198.034 134.883 197.768C135.049 197.535 135.316 197.401 135.582 197.401C139.374 197.368 143.465 195.437 147.423 193.605C151.581 191.674 155.839 189.709 159.964 189.709C162.292 189.709 164.355 190.342 166.284 191.607C166.916 189.343 166.45 186.812 164.887 183.482C164.022 181.684 163.124 179.786 162.824 177.655C161.76 172.46 162.059 172.094 162.392 171.727C162.558 171.528 162.891 171.361 163.157 171.361C163.756 171.361 164.122 171.861 164.454 172.393C166.849 174.125 168.978 174.191 172.837 173.592C174.3 173.359 175.564 173.259 176.762 173.259C181.851 173.259 185.277 175.39 187.206 179.753C188.271 182.183 187.639 184.415 186.608 186.313C187.007 186.179 187.406 186.046 187.805 185.946C191.597 184.814 194.558 183.915 197.418 180.851C202.84 175.057 203.339 167.398 198.782 160.372C197.718 158.74 196.454 157.209 194.89 155.643C190.865 152.913 187.805 150.549 185.676 148.451C185.41 148.184 185.31 147.785 185.477 147.452C185.643 147.085 185.976 146.919 186.375 146.952C192.196 147.552 195.622 141.891 198.948 136.429C201.377 132.467 203.672 128.704 206.832 127.305C208.894 125.441 210.957 124.508 212.919 124.508C212.187 122.643 209.892 120.978 205.967 119.413C204.104 119.18 202.408 119.147 200.512 119.313C199.381 119.447 198.25 120.079 196.986 120.779L196.587 121.012C196.254 121.211 195.822 121.145 195.522 120.878C195.223 120.612 195.156 120.179 195.356 119.846C196.121 118.348 196.786 116.783 197.352 115.384L197.585 114.884C198.849 111.821 201.011 107.492 204.77 105.128C207.397 102.83 210.391 101.431 213.618 100.965C215.713 100.665 218.208 100.932 220.337 101.631C220.27 98.2678 218.707 94.5049 216.013 91.3415C214.848 90.4757 213.584 89.7098 212.387 89.177C209.826 87.9782 206.167 87.3122 202.142 87.3122C201.443 87.3122 200.745 87.3455 200.079 87.3788C199.68 87.3788 199.314 87.1457 199.181 86.7461C199.048 86.3465 199.215 85.9136 199.58 85.7138C200.711 85.0145 201.842 84.2486 202.94 83.3495C205.767 81.0851 208.063 76.4231 208.429 72.294L208.362 71.628C207.963 67.0992 207.597 62.4039 208.761 57.975C209.726 54.2787 211.821 51.415 214.981 49.417C213.584 49.2838 212.021 49.5835 210.291 50.3494C208.229 51.2485 206.533 52.414 204.869 53.5461C201.942 55.5774 198.915 57.6753 194.025 58.0083C190.4 58.2414 187.173 56.1435 184.113 54.1455C182.749 53.2797 181.485 52.4473 180.221 51.8146C179.489 51.4483 178.625 51.2485 177.593 51.1819C177.261 51.1486 176.961 50.9488 176.828 50.6158C176.695 50.3161 176.762 49.9498 176.995 49.6834C177.993 48.5845 178.658 47.2858 179.39 45.8872C180.254 44.2555 181.153 42.5572 182.583 41.2252C182.982 40.8589 183.015 40.426 182.982 40.2928C182.982 40.3261 182.816 40.3594 182.55 40.5592C180.853 41.8246 179.057 42.4573 177.128 42.4573C175.232 42.4573 173.402 41.8912 171.506 41.2918C170.575 40.9921 169.643 40.6924 168.645 40.4593C168.246 40.3927 167.98 40.0597 167.98 39.6268C167.947 39.2272 168.213 38.8609 168.579 38.761L169.51 38.428C173.302 37.1626 175.564 36.1303 175.065 33.0334C174.433 29.0042 171.772 26.6399 168.679 23.876L168.446 23.6429C166.018 21.4784 164.621 18.6479 164.454 15.3845C164.022 13.553 164.022 11.555 164.454 9.59035C164.953 7.35926 165.951 4.36228 168.013 1.79819C165.053 1.89809 161.727 3.52978 160.03 5.76087C158.833 7.32596 158.467 9.79015 158.168 11.9546C158.068 12.7205 157.968 13.4864 157.802 14.1524C156.405 21.1454 152.114 21.9446 148.987 21.9446C147.39 21.9446 145.727 21.7115 144.097 21.4784C142.002 21.1787 140.072 20.879 138.409 21.1121C135.116 21.5783 129.295 22.9103 127.299 26.6732C127.166 26.9396 126.933 27.1061 126.667 27.1394C126.368 27.1727 126.102 27.1061 125.902 26.9396C125.203 26.3069 124.472 25.7408 123.64 25.1414C121.91 23.8427 120.114 22.5107 119.016 20.4461C117.886 18.3149 119.05 15.3845 120.014 12.9869C119.981 11.9213 119.848 10.9223 119.648 9.92335C117.686 13.6529 113.927 15.1514 110.767 16.0172C108.605 16.6166 106.243 18.1817 104.48 20.1464C102.917 21.9113 101.686 24.1424 100.788 26.7398C100.688 27.0395 100.456 27.2726 100.156 27.3392C99.8568 27.4058 99.5241 27.3059 99.3245 27.1061C97.8277 25.6076 95.7986 24.1424 93.6365 22.6439C91.807 21.3452 89.9443 20.0132 88.3809 18.6146C86.4516 17.5157 85.1211 16.1837 84.2895 14.6186C83.6242 13.3199 83.1918 11.888 83.092 10.3563C77.6701 12.3542 76.6056 16.5167 75.3749 21.2786C74.7096 23.8427 74.0111 26.4734 72.614 28.9709C72.4144 29.3039 72.0485 29.4704 71.6826 29.4038C71.3168 29.3372 71.0174 29.0375 70.9509 28.6712C70.718 27.0728 70.1858 25.8074 69.3542 24.8417C67.1588 24.3089 64.9967 24.2423 63.2005 24.2423C62.3024 24.2423 61.4375 24.2756 60.5394 24.2756C59.6413 24.3089 58.7432 24.3089 57.8451 24.3089C56.2152 24.3089 54.8846 24.2423 53.6206 24.0758C51.5583 23.8427 48.0324 22.9769 47.6332 20.0465C47.6332 20.0132 47.6332 19.9466 47.5999 19.88C44.5064 23.3432 41.4795 27.7721 41.0471 33.1999C40.6479 38.3281 41.7788 41.9578 44.9721 45.6874C45.6041 46.42 47.1675 47.2858 48.1987 47.8519L48.7309 48.1516C50.0947 48.6844 51.525 49.3504 52.9221 50.1163C53.0219 50.1829 53.1549 50.2495 53.2215 50.3494C53.3545 50.5159 53.4876 50.6824 53.6206 50.8822L53.7537 51.0487C53.9533 51.3151 53.9865 51.6481 53.8202 51.9478C53.6871 52.2475 53.3878 52.4473 53.0551 52.4473C50.0614 52.5472 46.0033 53.7792 44.9721 54.2121C42.1447 55.4442 39.4171 56.7429 36.5898 58.2747C33.6958 59.8065 31.6335 59.8065 30.436 58.3413C28.7396 56.2767 29.6377 51.7813 30.0701 49.6501C30.1367 49.3837 30.1699 49.1506 30.2032 48.9841C30.303 48.3181 30.0701 47.6188 27.5088 47.0194C27.3093 46.9861 27.1097 46.9528 26.9101 46.9195C22.22 47.2858 17.0974 50.9821 13.638 54.5451C16.798 54.9447 18.5277 55.8105 19.1265 57.2424C19.5922 58.4079 19.1597 59.8065 17.8292 61.3383C16.798 63.1698 16.5652 63.8358 16.0995 65.3676C16.3323 70.1628 17.0974 73.9257 18.3947 76.856L18.5277 76.9892C18.694 77.189 18.8604 77.3555 19.0599 77.5553C19.1597 77.6552 19.2595 77.7884 19.2928 77.9216C20.1909 80.7188 24.0494 82.6502 27.0764 83.4827C28.5733 83.8823 30.0701 83.9822 31.5337 84.1154C32.4318 84.182 33.2967 84.2486 34.1283 84.3818C34.5939 84.4484 34.8933 84.848 34.8933 85.3142C34.8601 85.7804 34.4609 86.1467 33.9952 86.1467C32.7977 86.1467 31.567 86.3132 30.2364 86.6462C27.5421 87.2456 25.5796 89.3435 23.9497 91.2416C21.2886 94.3385 17.0309 97.6684 13.139 97.6684C11.5091 97.6684 9.38028 97.069 7.65059 94.5382C7.08511 96.1366 6.71921 97.5685 6.4531 98.9005C6.12047 100.632 5.62152 103.529 6.68595 105.261C7.48427 106.626 8.9146 107.425 10.5112 107.425C11.4094 107.425 12.2742 107.159 13.0393 106.659C13.4717 106.393 13.9041 106.093 14.3698 105.727C16.1993 104.395 18.4612 102.763 20.8562 102.763C21.588 102.763 22.2865 102.897 22.9518 103.196C26.3779 104.695 28.2739 111.688 28.0078 112.986C27.9413 113.419 27.4756 113.819 27.0432 113.819C23.7833 113.852 21.8541 116.516 19.825 119.313C17.6629 122.344 15.401 125.474 11.3096 125.474H11.0767C10.1453 125.441 9.21397 125.307 8.31586 125.108C12.374 129.903 17.929 134.431 23.1181 137.062C23.484 137.262 23.6836 137.695 23.5838 138.094C23.484 138.494 23.0848 138.794 22.6856 138.76C22.2865 138.727 21.8873 138.727 21.4882 138.727C18.6275 138.727 16.3323 139.327 14.5028 140.559C12.507 141.891 11.0102 143.089 9.84597 144.355C8.1828 146.952 7.8169 150.216 7.41774 153.712C7.1849 155.71 6.95206 157.775 6.4531 159.806C5.85436 162.237 4.72341 164.068 3.25982 165.134C5.55499 165.933 7.91669 166.233 9.64639 165.101C10.9104 164.268 12.2077 162.736 13.4717 161.271C15.7336 158.64 18.062 155.91 20.956 155.91C22.6856 155.91 24.2823 156.842 25.9122 158.774C29.4049 162.969 34.1948 164.634 40.7144 163.869C41.1801 163.835 41.5793 164.102 41.6791 164.535C41.7788 164.967 41.546 165.434 41.1468 165.567C37.9203 166.832 33.8954 168.73 31.2011 172.46C30.0369 174.058 29.3383 176.023 29.0722 178.287C29.0722 179.819 29.3051 181.284 29.8373 182.583C30.3695 183.848 31.3341 185.247 32.332 186.712C34.095 189.276 35.8912 191.874 35.9577 194.704C35.991 197.801 34.6272 200.865 32.5316 202.663C34.9598 202.763 37.2883 202.396 39.7165 201.497C43.309 200.199 44.8723 196.136 46.4025 192.24C47.5334 189.31 48.6976 186.279 50.7267 184.381C51.0593 184.082 51.525 184.048 51.8909 184.348C52.2236 184.614 52.3233 185.114 52.1238 185.48C51.5583 186.512 50.893 187.878 50.9595 188.843C51.0261 190.175 51.9574 191.974 52.8888 193.872C54.7183 197.501 56.9802 201.93 53.5208 204.761C55.2838 205.294 57.5124 205.26 59.6413 204.694C60.8055 204.128 62.0363 203.329 63.134 202.363C64.9967 200.731 66.3272 198.8 67.2919 197.268C67.4915 196.935 67.9239 196.769 68.323 196.902C68.7222 197.035 68.955 197.401 68.955 197.801C68.822 200.698 70.086 203.196 72.6473 205.26C73.878 206.259 75.5079 207.258 77.2044 208.324C81.7947 211.188 87.0171 214.451 87.0504 218.813C87.0836 221.644 84.9548 224.474 80.5307 227.371C79.8987 227.838 79.2334 228.404 78.7678 229.003Z" fill="#ECBC81"/>
<path d="M169.51 122.377C169.743 122.31 169.976 122.277 170.209 122.21C170.375 121.844 170.708 121.578 171.207 121.777C171.34 121.811 171.473 121.844 171.573 121.911C174.2 121.478 176.729 121.777 179.257 122.643C181.319 122.21 183.281 121.211 184.978 119.546C188.337 116.25 189.601 112.553 191.198 108.291C192.895 103.662 196.154 100.366 199.647 97.2021C196.055 97.6017 192.728 97.302 189.302 95.304C185.011 92.8066 180.654 91.3081 176.496 91.9408C170.874 94.8711 166.749 99.2334 168.512 106.959C168.779 108.091 167.049 108.557 166.783 107.425C165.752 102.963 166.483 99.2667 168.446 96.303C167.648 96.9357 166.517 95.7369 167.282 94.971C169.776 92.4403 172.837 90.6088 176.163 90.0094C176.629 89.7763 177.128 89.5432 177.627 89.3434C182.051 87.4786 186.741 86.3464 191.198 84.6148C194.757 83.2495 197.219 80.8852 199.015 78.0214C192.362 76.2565 185.111 70.9952 178.292 71.8276C177.36 71.9275 177.128 70.5623 177.826 70.1627C181.419 68.0648 185.31 69.4967 189.036 68.1314C192.595 66.8327 194.059 64.6349 195.289 61.9043C190.233 65.4674 183.847 66.4331 177.76 64.0688C175.132 63.0698 168.779 60.3725 164.687 60.9053C164.687 63.3695 164.953 65.8004 165.186 67.9649C165.319 69.1304 163.556 69.0971 163.39 67.9649C163.157 65.9336 162.957 63.7025 162.924 61.4381C161.86 62.0042 161.128 63.0032 161.028 64.7015C160.962 65.8337 159.165 65.867 159.232 64.7015C159.432 61.7711 160.928 60.2726 162.957 59.6066C163.124 54.8114 164.221 50.0163 167.481 46.7529C159.465 46.653 148.821 42.3573 145.561 51.8477C145.261 52.7468 143.764 52.6802 143.798 51.6146C144.197 44.1222 147.623 40.326 153.577 36.2967C158.434 33.0666 162.625 29.9031 159.199 23.8759C159.165 23.8093 159.132 23.7094 159.066 23.6428C155.506 26.6731 149.852 27.7054 145.195 28.3381C140.571 28.9708 135.482 29.0374 131.59 32.001C126.035 36.1968 121.012 44.1888 127.199 50.0829C128.031 50.882 126.767 52.1474 125.935 51.3482C123.906 49.4169 122.908 47.1525 122.675 44.7882C122.21 46.5531 121.644 48.2847 121.179 50.0496C120.912 51.1817 119.183 50.7155 119.449 49.5834C120.314 46.2867 122.077 42.5904 121.977 39.1272C121.877 34.9314 119.482 32.001 116.755 29.0707C114.692 26.8396 112.896 24.6751 112.364 22.1443C110.634 24.8749 108.605 27.439 107.94 30.7356C106.676 37.1292 108.705 42.99 114.193 46.653C115.158 47.2857 114.26 48.8175 113.295 48.1848C111.665 47.1192 110.235 45.7872 109.037 44.2887C109.57 46.0869 109.869 47.9517 109.869 49.7832C109.869 50.9486 108.073 50.9486 108.073 49.7832C108.04 43.989 104.913 37.9284 100.422 34.2654C97.1957 31.668 93.3371 30.669 89.5118 29.3038C85.5868 27.9385 81.4621 26.2735 79.2667 22.9435C79.2002 32.4339 83.2251 40.3593 91.7405 45.6873C97.0959 49.0506 101.553 52.9466 100.056 59.8064C99.8235 60.9386 98.0938 60.4724 98.3266 59.3402C100.223 50.6822 89.8445 47.2191 84.4225 42.0576C86.6512 45.9537 87.4162 50.7821 87.3165 55.4108C87.2832 56.543 85.487 56.5763 85.5202 55.4108C85.6533 50.4824 84.9548 44.5218 81.4288 40.7256C78.2023 37.2291 74.0111 36.0636 69.4873 35.2644C63.7327 34.2321 57.7785 33.4662 53.4876 29.5036C53.8535 33.1332 55.6164 36.1635 57.7453 39.2937C59.0426 41.1918 60.872 43.323 61.4043 45.654C62.1361 48.9174 62.2358 52.3472 62.5019 55.6439C62.5352 56.1101 62.5685 56.7761 62.635 57.6419C64.6641 58.9406 65.8948 61.7045 65.9281 66.7661C65.9281 67.8983 64.1319 67.8983 64.1319 66.7661C64.1319 64.0688 63.6662 62.1374 62.8678 60.872C63.5331 68.1314 65.3293 79.1869 71.3833 75.8236C72.3812 75.2575 73.2793 76.7893 72.2814 77.3554C63.3335 82.3504 61.7702 66.6995 61.2047 61.3715C61.1382 60.6722 61.0716 59.9396 61.0051 59.207C53.4543 55.4774 34.0617 73.093 26.5775 66.6995C27.4091 71.9275 30.5358 77.3221 36.5232 77.2888C40.6146 77.2555 44.5397 76.1899 48.5313 77.2555C53.8202 78.6874 56.2817 86.0467 52.5229 90.0094C52.4897 90.0427 52.4897 90.0427 52.4564 90.0427C53.5874 91.408 54.4189 93.1395 54.8181 95.1042C55.0509 96.2364 53.3213 96.7026 53.0884 95.5704C51.2257 86.5462 40.5481 86.5129 34.8268 92.1406C31.5005 95.4039 29.0057 99.3 25.1804 101.931C28.8061 103.096 32.4651 104.661 33.9287 108.491C34.4942 109.956 35.0264 111.554 34.9598 113.119C34.8601 115.051 34.2946 117.648 35.5586 119.347C38.3195 123.143 43.3422 122.543 46.9347 120.445C47.9326 119.879 48.8307 121.411 47.8328 121.977C46.6686 122.643 45.2382 123.176 43.7414 123.509C43.6083 123.909 43.2092 124.242 42.7102 124.142C35.0929 122.876 30.6356 125.84 25.7459 130.735C29.172 131.001 32.1657 132.666 35.1262 134.565C40.6146 138.128 45.1385 140.026 50.6602 135.131C51.525 134.365 52.789 135.63 51.9242 136.396C50.9263 137.295 49.8619 138.061 48.7309 138.694C48.6976 138.727 48.6976 138.76 48.6644 138.794C42.2445 144.355 34.9266 142.59 27.5088 140.658C30.7021 147.851 39.151 157.541 47.4669 155.21C47.9658 155.077 48.4648 154.844 48.9637 154.644C49.9284 151.914 51.4585 149.316 53.1882 146.652C53.8202 145.687 55.3503 146.586 54.7183 147.551C53.4876 149.45 52.2236 151.414 51.2257 153.512C55.5832 150.881 58.976 146.386 62.5352 142.923C63.3668 142.124 64.6308 143.389 63.7992 144.188C59.7078 148.217 55.5499 153.745 50.1945 156.076C49.5957 157.908 49.3296 159.806 49.5958 161.771C50.0282 165.167 51.3587 168.497 51.525 171.927C51.7246 176.323 50.0282 179.286 46.8016 181.384C54.9179 182.35 63.5331 183.382 69.8199 176.955C70.7513 175.99 71.6161 174.957 72.4144 173.892C73.113 172.959 73.7782 171.994 74.4103 171.028C76.4726 167.798 78.169 164.335 79.9652 160.971C80.4975 159.939 82.0608 160.871 81.4954 161.87C81.1627 162.47 80.8634 163.103 80.5307 163.735C82.46 161.637 84.5889 159.673 86.8175 158.008C87.7489 157.308 88.6137 158.84 87.7156 159.539C75.8738 168.664 66.1942 184.914 77.1711 197.868C77.3042 192.273 78.0692 187.578 81.6949 182.749C84.2562 179.353 87.4828 176.522 90.7758 173.792C94.0689 170.295 98.3266 167.298 102.584 164.534C103.549 163.902 104.447 165.467 103.482 166.066C102.085 166.965 100.622 167.864 99.125 168.863C99.0917 168.963 99.0252 169.096 98.8921 169.196C95.9982 171.86 92.8382 174.291 89.8777 176.889C89.0462 177.988 88.3144 179.12 87.7489 180.352C85.8529 184.714 85.7198 190.375 88.015 194.671C89.6116 197.634 91.9733 199.466 94.6677 201.397C97.5948 203.495 101.62 206.159 101.753 210.055C104.347 208.024 107.075 206.326 109.536 205.16C112.863 203.529 116.588 201.864 118.983 198.933C122.11 195.137 122.476 191.674 122.143 187.012C121.511 178.52 125.935 171.094 128.596 163.269C128.696 162.969 128.896 162.803 129.129 162.736C129.827 160.139 130.06 157.541 129.195 155.111C128.796 154.045 130.526 153.579 130.925 154.644C132.355 158.607 131.091 162.47 129.694 166.299C127.898 171.228 125.935 176.489 126.002 181.817C126.068 188.377 127.798 193.172 133.752 196.169C134.018 196.302 134.251 196.436 134.517 196.569C133.253 193.638 133.12 190.209 134.55 186.512C136.28 182.083 139.34 178.72 141.769 174.757C142.434 173.692 142.933 172.626 143.365 171.561C143.332 169.396 143.565 167.098 144.064 164.801C144.164 164.335 144.53 164.168 144.895 164.168C145.028 161.671 144.862 159.107 144.629 156.409C144.53 155.244 146.326 155.277 146.426 156.409C146.791 160.805 147.49 165.533 146.093 169.829C145.827 170.628 145.494 171.394 145.162 172.16C145.394 177.754 147.823 182.55 153.477 184.781C150.75 180.319 152.546 176.089 155.274 171.094C159.099 164.135 158.6 156.809 154.642 150.948C153.976 150.981 153.278 151.115 152.513 151.514C151.482 152.08 150.583 150.515 151.615 149.982C152.247 149.649 152.812 149.416 153.378 149.25C152.047 147.685 150.484 146.219 148.621 144.954C147.69 144.321 148.588 142.756 149.519 143.422C151.748 144.954 153.81 146.852 155.506 149.017C158.633 149.283 160.662 152.347 162.192 155.876C163.822 159.639 165.253 164.102 169.045 166.299C172.97 168.564 177.394 168.464 181.618 167.365C177.859 163.769 180.72 158.64 180.654 153.679C180.587 149.516 179.157 145.953 176.828 143.023C172.171 142.357 167.98 139.659 165.352 135.63C164.887 135.497 164.421 135.364 163.955 135.264C162.858 134.997 163.323 133.266 164.421 133.532C169.411 134.731 174.533 137.362 177.926 141.391C180.155 141.591 182.45 141.324 184.612 140.425C190.267 138.128 191.897 133.166 194.857 128.837C189.069 130.369 183.98 126.506 178.425 124.641C176.096 125.007 173.635 124.774 171.207 123.909C170.708 123.975 170.242 124.075 169.743 124.242C168.912 124.441 168.413 122.71 169.51 122.377Z" fill="#C82C27"/>
<path d="M174.766 117.948C173.003 116.383 170.941 115.051 168.712 114.085C170.408 115.85 172.504 117.149 174.766 117.948Z" fill="#F3AE22"/>
<path d="M185.743 115.983C185.743 157.508 152.114 191.174 110.634 191.174C69.1546 191.174 35.5253 157.508 35.5253 115.983C35.5253 74.4584 69.1546 40.7922 110.634 40.7922C152.114 40.8255 185.743 74.4917 185.743 115.983Z" fill="#F3AE22"/>
<path d="M41.0803 120.445C41.0803 80.4524 73.4789 48.0516 113.428 48.0516C152.646 48.0516 184.545 79.2869 185.71 118.248C185.743 117.515 185.743 116.749 185.743 115.983C185.743 74.4584 152.114 40.7922 110.634 40.7922C69.1546 40.7922 35.5253 74.4584 35.5253 115.983C35.5253 146.553 53.7204 172.826 79.8655 184.614C56.8139 172.493 41.0803 148.317 41.0803 120.445Z" fill="#FCEC6C"/>
</g>
<defs>
<clipPath id="clip0_17_976">
<rect width="222" height="232" fill="white"/>
</clipPath>
</defs>
</svg>
