<svg width="165" height="165" viewBox="0 0 165 165" fill="none" xmlns="http://www.w3.org/2000/svg">
<g clip-path="url(#clip0_31_2098)">
<path d="M153.138 39.8562C129.592 0.889639 78.9414 -11.684 39.9155 11.862C0.889658 35.3487 -11.684 86.0586 11.862 125.084C35.408 164.11 86.1179 176.684 125.084 153.138C164.11 129.592 176.684 78.8821 153.138 39.8562Z" fill="#7BCAEE"/>
<path d="M59.6064 34.9337C69.3332 39.6785 80.6614 39.5005 89.6172 33.2137C97.0309 27.9944 102.725 19.2166 102.547 9.90493C102.487 6.99874 101.835 4.38911 100.767 2.01672C83.1524 -1.95704 64.2326 -0.237058 47.0327 8.00701C45.3127 18.6828 49.0493 29.7737 59.6064 34.9337Z" fill="#1C76BC"/>
<path d="M23.546 67.8505C37.4245 72.9511 53.6754 74.1966 68.2656 72.5953C82.2628 71.0532 95.3109 66.7829 107.114 59.0726C120.696 50.1761 133.447 37.0687 138.133 21.5888C132.558 16.4881 126.33 12.2178 119.687 8.89648C121.882 19.2757 117.018 29.7735 109.842 37.128C100.827 46.3803 88.4903 51.1251 75.6794 51.5403C61.9788 52.0147 48.4561 48.5155 36.6535 41.5169C31.0191 38.1362 24.7322 34.0439 19.8095 28.8839C12.3365 37.6025 6.93926 47.6258 3.67722 58.3609C9.90475 62.1567 16.6661 65.3001 23.546 67.8505Z" fill="#1C76BC"/>
<path d="M30.248 121.586C62.5126 123.483 94.9551 116.426 122.534 99.3443C137.362 90.1513 152.426 78.0521 162.628 63.1653C160.67 55.1585 157.527 47.3889 153.079 39.9159C152.96 39.7379 152.841 39.5007 152.723 39.3228C150.173 44.6606 147.029 49.7613 143.53 54.4468C132.973 68.5625 118.976 80.6617 103.14 88.6092C77.2807 101.539 46.6769 103.199 18.8605 96.3195C12.7516 94.7775 6.46478 92.9389 0.355865 90.8037C1.30482 100.649 4.09239 110.435 8.77786 119.688C15.9544 120.577 23.1308 121.17 30.248 121.586Z" fill="#1C76BC"/>
<path d="M127.991 136.235C140.386 127.754 151.833 117.908 161.323 106.58C163.636 98.929 164.881 90.9814 164.941 82.9746C160.73 89.3208 155.926 95.2517 150.528 100.649C130.956 120.518 105.69 133.21 79.06 140.861C64.4105 145.072 48.6341 148.215 33.0356 148.512C40.9831 154.502 49.9389 158.891 59.3098 161.619C83.8641 158.239 107.292 150.351 127.991 136.235Z" fill="#1C76BC"/>
<path d="M89.6172 33.2728C97.0309 28.0536 102.725 19.2757 102.547 9.96405C102.487 7.05787 101.835 4.44824 100.767 2.07585C98.6323 1.60137 96.4378 1.1862 94.3026 0.889648C95.7261 6.40546 94.2433 12.8702 90.9813 17.8523C86.3551 24.9694 78.1704 29.6549 69.5111 27.6977C59.0133 25.4439 52.3113 16.0137 51.4216 6.10892C49.9389 6.70201 48.4561 7.35442 46.9734 8.06614C45.3127 18.7419 49.0492 29.8329 59.5471 34.9928C69.2739 39.6783 80.6021 39.5597 89.6172 33.2728Z" fill="#BAE4F2"/>
<path d="M107.114 59.0725C120.696 50.176 133.447 37.0685 138.133 21.5886C136.472 20.0466 134.693 18.6231 132.913 17.1997C132.142 20.6397 130.66 23.961 129.058 26.9858C126.211 32.2644 122.712 37.4837 118.382 41.6354C112.689 47.1512 106.105 51.5994 99.1068 55.3359C92.0489 59.1318 84.8131 62.2159 76.8656 63.6393C61.2671 66.3676 46.4989 63.6393 32.2646 56.9966C24.6729 53.438 16.6661 49.0491 9.84544 43.474C7.29512 48.2188 5.21927 53.2008 3.67722 58.3014C9.90475 62.1566 16.6661 65.2407 23.546 67.791C37.4245 72.8917 53.6754 74.1372 68.2656 72.5358C82.2628 71.053 95.3109 66.7234 107.114 59.0725Z" fill="#BAE4F2"/>
<path d="M162.687 63.1057C161.797 59.4284 160.67 55.8105 159.247 52.252C156.044 61.1484 150.884 69.2146 144.182 76.1538C124.254 96.7936 95.9633 109.486 67.7319 113.045C46.5582 115.713 24.9102 114.112 4.27032 108.715C5.51583 112.392 6.99858 116.069 8.83718 119.628C15.9544 120.636 23.1309 121.17 30.248 121.585C62.5126 123.483 94.9551 116.425 122.534 99.344C137.362 90.1509 152.486 78.0517 162.687 63.1057Z" fill="#BAE4F2"/>
<path d="M127.991 136.235C140.386 127.753 151.833 117.908 161.323 106.58C162.45 102.843 163.339 98.988 163.932 95.1328C157.29 104.8 149.283 113.341 139.971 120.577C126.804 130.778 111.74 139.022 96.4971 145.605C81.3138 152.189 65.7153 155.629 49.4644 158.12C52.6671 159.484 55.9292 160.73 59.2505 161.678C83.8641 158.238 107.292 150.35 127.991 136.235Z" fill="#BAE4F2"/>
<path opacity="0.8" d="M153.138 39.8562C129.592 0.889639 78.9414 -11.684 39.9155 11.862C0.889658 35.3487 -11.684 86.0586 11.862 125.084C35.408 164.11 86.1179 176.684 125.084 153.138C164.11 129.592 176.684 78.8821 153.138 39.8562ZM28.706 107.351C9.25235 75.0269 19.6316 33.0949 51.8961 13.6413C84.1607 -5.81237 126.093 4.56685 145.606 36.8314C165.059 69.096 154.68 111.028 122.416 130.541C90.0917 149.995 48.1596 139.615 28.706 107.351Z" fill="#2996CD"/>
<g opacity="0.8">
<path d="M164.466 91.5745C160.196 113.756 146.91 134.1 126.093 146.673C87.0669 170.16 36.3569 157.646 12.8109 118.62C3.08411 102.488 -0.474477 84.3387 1.48275 66.9609C-2.25377 86.2959 0.88965 106.936 11.862 125.085C35.408 164.11 86.1179 176.684 125.084 153.138C147.978 139.319 161.738 116.188 164.466 91.5745Z" fill="#2996CD"/>
</g>
</g>
<defs>
<clipPath id="clip0_31_2098">
<rect width="165" height="165" fill="white"/>
</clipPath>
</defs>
</svg>
